<?xml version="1.0" encoding="UTF-8"?>
<svg width="2782px" height="749px" viewBox="0 0 2782 749" version="1.1" xmlns="http://www.w3.org/2000/svg" xmlns:xlink="http://www.w3.org/1999/xlink">
    <!-- Generator: Sketch 59.1 (86144) - https://sketch.com -->
    <title>MASTER</title>
    <desc>Created with Sketch.</desc>
    <g id="Page-1" stroke="none" stroke-width="1" fill="none" fill-rule="evenodd">
        <g id="MASTER" transform="translate(-84.000000, -84.000000)">
            <g id="Text" transform="translate(745.354439, 125.946318)" fill="#1E3752" fill-rule="nonzero">
                <path d="M175.383138,433.585685 L175.383138,119.962836 L275.401032,119.962836 C294.660592,119.962836 311.257122,121.859582 325.191122,125.653131 C339.125121,129.446681 350.578551,134.845113 359.551755,141.848589 C368.524959,148.852065 375.163571,157.4239 379.467791,167.56435 C383.772011,177.704799 385.924088,189.121753 385.924088,201.815554 C385.924088,209.548559 384.720384,216.989641 382.312939,224.139023 C379.905494,231.288405 376.257905,237.927017 371.370062,244.055058 C366.482219,250.1831 360.354269,255.654484 352.986029,260.469374 C345.617788,265.284264 336.973002,269.22366 327.051411,272.287681 C349.958614,276.810759 367.248187,285.05431 378.920647,297.018582 C390.593107,308.982854 396.42925,324.740439 396.42925,344.29181 C396.42925,357.569234 393.985365,369.67923 389.097522,380.622161 C384.20968,391.565093 377.060405,400.975873 367.649484,408.854783 C358.238563,416.733694 346.712181,422.825168 333.069993,427.129387 C319.427805,431.433607 303.8526,433.585685 286.343909,433.585685 L175.383138,433.585685 Z M217.8415,290.671714 L217.8415,399.881624 L285.687337,399.881624 C297.797514,399.881624 308.193143,398.49554 316.874535,395.723331 C325.555928,392.951122 332.705202,389.048201 338.322574,384.014453 C343.939945,378.980704 348.061721,372.998658 350.688025,366.068135 C353.314328,359.137612 354.62746,351.51415 354.62746,343.197522 C354.62746,327.001984 348.900745,314.198946 337.447144,304.788025 C325.993542,295.377104 308.667494,290.671714 285.468479,290.671714 L217.8415,290.671714 Z M217.8415,260.469374 L273.86903,260.469374 C285.833301,260.469374 296.192455,259.156242 304.9468,256.529938 C313.701145,253.903634 320.959847,250.256045 326.723125,245.587061 C332.486402,240.918077 336.754081,235.264314 339.52629,228.625602 C342.2985,221.98689 343.684584,214.728188 343.684584,206.849277 C343.684584,188.465152 338.140248,174.969073 327.051411,166.360633 C315.962574,157.752194 298.745953,153.448039 275.401032,153.448039 L217.8415,153.448039 L217.8415,260.469374 Z M510.197632,208.38128 C523.475056,208.38128 535.730956,210.606309 546.965699,215.056435 C558.200442,219.50656 567.903029,225.926317 576.073751,234.315898 C584.244473,242.705479 590.627754,253.064632 595.223785,265.393668 C599.819817,277.722704 602.117798,291.765923 602.117798,307.523744 C602.117798,313.651786 601.461232,317.737085 600.14808,319.779766 C598.834928,321.822447 596.354567,322.843772 592.706924,322.843772 L445.196944,322.843772 C445.488756,336.850724 447.385502,349.033672 450.88724,359.39298 C454.388978,369.752289 459.203796,378.397075 465.331838,385.327598 C471.459879,392.258121 478.755057,397.437698 487.217591,400.866483 C495.680125,404.295268 505.163857,406.009635 515.669071,406.009635 C525.444756,406.009635 533.870687,404.878883 540.947116,402.617343 C548.023545,400.355804 554.115019,397.91192 559.221721,395.285616 C563.761011,392.951124 567.63737,390.760765 570.850888,388.714489 L572.024886,387.953889 C575.453672,385.692349 578.408219,384.561597 580.888617,384.561597 C583.831049,384.561597 586.160444,385.603693 587.876858,387.687913 L599.27265,402.507915 C594.45776,408.344145 588.694569,413.414294 581.982904,417.718513 C575.27124,422.022733 568.085489,425.560895 560.425437,428.333104 C552.765385,431.105313 544.850117,433.184439 536.679394,434.570544 C528.508672,435.956648 520.411024,436.64969 512.386208,436.64969 C497.066104,436.64969 482.949934,434.059902 470.037275,428.880248 C457.124615,423.700594 445.962993,416.113608 436.552072,406.119064 C427.14115,396.12452 419.809496,383.759193 414.556889,369.022712 C409.304282,354.286231 406.678018,337.361417 406.678018,318.247763 C406.678018,302.781753 409.048951,288.3373 413.790888,274.913971 C418.532825,261.490642 425.353816,249.854832 434.254067,240.006194 C443.154318,230.157556 454.024134,222.424667 466.86384,216.807295 C479.703547,211.189924 494.148,208.38128 510.197632,208.38128 Z M511.073063,237.051617 C492.25122,237.051617 477.442009,242.486525 466.644983,253.356504 C455.847957,264.226482 449.136393,279.291026 446.510089,298.550585 L567.100592,298.550585 C567.100592,289.504428 565.860412,281.224401 563.380014,273.710255 C560.899616,266.196108 557.252027,259.7034 552.437137,254.231934 C547.622247,248.760468 541.749629,244.529265 534.819105,241.538197 C527.888582,238.547129 519.973314,237.051617 511.073063,237.051617 Z M681.087832,499.024088 C679.77468,501.942203 678.133265,504.27666 676.163538,506.027529 C674.19381,507.778398 671.166311,508.65382 667.08095,508.65382 L638.191755,508.65382 L678.680399,420.67309 L587.197949,211.883001 L620.90201,211.883001 C624.257842,211.883001 626.884106,212.721946 628.780881,214.399862 C630.677656,216.077779 632.06374,217.938049 632.939174,219.98073 L692.249566,359.611838 C693.562718,362.821764 694.693471,366.031643 695.641858,369.241569 C696.590246,372.451496 697.429191,375.734326 698.15872,379.090158 L700.201389,372.475801 C700.541834,371.389621 700.882279,370.311545 701.222725,369.241569 C702.244066,366.031643 703.411294,362.748812 704.724446,359.39298 L762.283978,219.98073 C763.159412,217.646237 764.654924,215.713015 766.770557,214.181005 C768.886191,212.648994 771.184172,211.883001 773.66457,211.883001 L804.74234,211.883001 L681.087832,499.024088 Z M894.217536,208.38128 C910.413075,208.38128 925.039907,211.080496 938.098472,216.479009 C951.157037,221.877522 962.245708,229.537459 971.364818,239.45905 C980.483927,249.380641 987.487298,261.38121 992.375141,275.461115 C997.262984,289.54102 999.706869,305.262129 999.706869,322.624914 C999.706869,340.133604 997.262984,355.891189 992.375141,369.898142 C987.487298,383.905094 980.483927,395.869186 971.364818,405.790778 C962.245708,415.712369 951.157037,423.33583 938.098472,428.66139 C925.039907,433.98695 910.413075,436.64969 894.217536,436.64969 C878.021997,436.64969 863.395165,433.98695 850.3366,428.66139 C837.278035,423.33583 826.152888,415.712369 816.960826,405.790778 C807.768763,395.869186 800.69244,383.905094 795.731645,369.898142 C790.770849,355.891189 788.290489,340.133604 788.290489,322.624914 C788.290489,305.262129 790.770849,289.54102 795.731645,275.461115 C800.69244,261.38121 807.768763,249.380641 816.960826,239.45905 C826.152888,229.537459 837.278035,221.877522 850.3366,216.479009 C863.395165,211.080496 878.021997,208.38128 894.217536,208.38128 Z M894.217536,406.228493 C916.103399,406.228493 932.444598,398.896839 943.241624,384.23331 C954.03865,369.569782 959.437082,349.106807 959.437082,322.843772 C959.437082,296.43483 954.03865,275.862427 943.241624,261.125946 C932.444598,246.389465 916.103399,239.021335 894.217536,239.021335 C883.128699,239.021335 873.499064,240.918082 865.328341,244.711631 C857.157619,248.505181 850.336627,253.976564 844.865162,261.125946 C839.393696,268.275328 835.308396,277.066018 832.60914,287.498279 C829.909883,297.930541 828.560275,309.712254 828.560275,322.843772 C828.560275,335.975289 829.909883,347.720526 832.60914,358.079835 C835.308396,368.439143 839.393696,377.156881 844.865162,384.23331 C850.336627,391.309739 857.157619,396.744647 865.328341,400.538197 C873.499064,404.331746 883.128699,406.228493 894.217536,406.228493 Z M1017.83451,433.585685 L1017.83451,211.883001 L1041.03341,211.883001 C1046.57783,211.883001 1050.07951,214.582217 1051.53857,219.98073 L1054.60257,244.055058 C1064.23235,233.403938 1074.99274,224.795628 1086.88406,218.229869 C1098.77538,211.66411 1112.52679,208.38128 1128.13871,208.38128 C1140.24888,208.38128 1150.93632,210.387454 1160.20134,214.399862 C1169.46635,218.412271 1177.19924,224.10251 1183.40023,231.47075 C1189.60123,238.838991 1194.30662,247.702632 1197.51655,258.061941 C1200.72647,268.421249 1202.33141,279.874679 1202.33141,292.422574 L1202.33141,433.585685 L1163.37477,433.585685 L1163.37477,292.422574 C1163.37477,275.643412 1159.5448,262.621519 1151.88475,253.356504 C1144.2247,244.091488 1132.51594,239.45905 1116.75811,239.45905 C1105.23156,239.45905 1094.47117,242.231218 1084.47663,247.775637 C1074.48208,253.320055 1065.25368,260.834089 1056.79115,270.317963 L1056.79115,433.585685 L1017.83451,433.585685 Z M1387.22849,433.585685 C1381.68407,433.585685 1378.18239,430.886469 1376.72333,425.487956 L1373.22161,398.568479 C1363.73774,410.095034 1352.9044,419.323434 1340.72127,426.253957 C1328.53814,433.184481 1314.56787,436.64969 1298.81005,436.64969 C1286.11625,436.64969 1274.58987,434.205806 1264.23056,429.317963 C1253.87125,424.43012 1245.04408,417.24437 1237.7488,407.760496 C1230.45351,398.276622 1224.83622,386.458433 1220.89677,372.305575 C1216.95731,358.152717 1214.98761,341.884469 1214.98761,323.500344 C1214.98761,307.1589 1217.17617,291.948453 1221.55334,277.868548 C1225.93051,263.788643 1232.24084,251.569219 1240.48451,241.209911 C1248.72819,230.850602 1258.75906,222.716478 1270.57743,216.807295 C1282.39579,210.898112 1295.81892,207.943565 1310.84721,207.943565 C1324.41645,207.943565 1336.01578,210.241546 1345.64556,214.837577 C1355.27534,219.433609 1363.88365,225.889841 1371.47075,234.206469 L1371.47075,111.208534 L1410.42739,111.208534 L1410.42739,433.585685 L1387.22849,433.585685 Z M1311.72264,405.134205 C1324.41644,405.134205 1335.54159,402.216134 1345.09842,396.379904 C1354.65524,390.543674 1363.44593,382.300122 1371.47075,371.649002 L1371.47075,264.408809 C1364.32137,254.77903 1356.47905,248.03099 1347.94357,244.164487 C1339.40808,240.297985 1329.96082,238.364763 1319.60151,238.364763 C1298.8829,238.364763 1282.97941,245.732893 1271.89057,260.469374 C1260.80173,275.205855 1255.2574,296.215968 1255.2574,323.500344 C1255.2574,337.945014 1256.49758,350.310341 1258.97798,360.596696 C1261.45837,370.883052 1265.10596,379.345459 1269.92085,385.984171 C1274.73574,392.622882 1280.64484,397.474176 1287.64831,400.538197 C1294.65179,403.602218 1302.67649,405.134205 1311.72264,405.134205 Z M1459.85166,433.585685 L1459.85166,123.902271 L1548.92668,123.902271 C1566.58127,123.902271 1581.86467,125.653114 1594.77733,129.154852 C1607.68999,132.65659 1618.37742,137.799691 1626.83996,144.584308 C1635.30249,151.368926 1641.61282,159.648953 1645.77114,169.424639 C1649.92945,179.200324 1652.00858,190.288995 1652.00858,202.690984 C1652.00858,210.861706 1650.58602,218.740499 1647.74085,226.327598 C1644.89569,233.914697 1640.77392,240.918068 1635.3754,247.337922 C1629.97689,253.757775 1623.37475,259.338586 1615.5688,264.080523 C1607.76284,268.82246 1598.82624,272.433573 1588.75875,274.913971 C1613.12501,278.561615 1631.87362,286.659263 1645.00513,299.207158 C1658.13665,311.755052 1664.70231,328.315107 1664.70231,348.887818 C1664.70231,362.019336 1662.36786,373.837525 1657.69887,384.342739 C1653.02989,394.847953 1646.24537,403.748071 1637.34512,411.043359 C1628.44487,418.338646 1617.5021,423.919458 1604.51649,427.78596 C1591.53088,431.652463 1576.79462,433.585685 1560.30727,433.585685 L1459.85166,433.585685 Z M1482.17513,285.200275 L1482.17513,415.639367 L1559.86955,415.639367 C1587.15393,415.639367 1607.72633,409.766748 1621.58738,398.021335 C1635.44842,386.275922 1642.37884,369.752343 1642.37884,348.450103 C1642.37884,338.674418 1640.51857,329.883728 1636.79798,322.07777 C1633.07738,314.271812 1627.71542,307.6332 1620.71195,302.161734 C1613.70847,296.690269 1605.10016,292.495541 1594.88676,289.577426 C1584.67336,286.659311 1573.07402,285.200275 1560.08841,285.200275 L1482.17513,285.200275 Z M1482.17513,268.78596 L1549.36439,268.78596 C1563.66315,268.78596 1575.88258,266.962166 1586.02303,263.314522 C1596.16348,259.666878 1604.47998,254.85206 1610.97279,248.869924 C1617.46559,242.887788 1622.24394,236.103273 1625.30796,228.516173 C1628.37198,220.929074 1629.90396,213.123234 1629.90396,205.098417 C1629.90396,184.233894 1623.30183,168.439833 1610.09736,157.71576 C1596.89289,146.991688 1576.50286,141.629732 1548.92668,141.629732 L1482.17513,141.629732 L1482.17513,268.78596 Z M1721.45211,115.14797 L1721.45211,433.585685 L1700.66065,433.585685 L1700.66065,115.14797 L1721.45211,115.14797 Z M1845.17232,212.320716 C1857.4284,212.320716 1868.7724,214.436317 1879.20467,218.667584 C1889.63693,222.898851 1898.68295,229.063277 1906.343,237.161046 C1914.00305,245.258815 1919.9851,255.216734 1924.28932,267.0351 C1928.59354,278.853466 1930.74562,292.422497 1930.74562,307.742602 C1930.74562,310.952528 1930.27143,313.141082 1929.32304,314.308328 C1928.37465,315.475574 1926.87914,316.059188 1924.83646,316.059188 L1767.47789,316.059188 L1767.47789,320.217481 C1767.47789,336.558925 1769.37464,350.930427 1773.16819,363.332416 C1776.96174,375.734405 1782.36017,386.130034 1789.36365,394.519615 C1796.36712,402.909195 1804.82953,409.219525 1814.75112,413.450791 C1824.67271,417.682058 1835.76138,419.79766 1848.01747,419.79766 C1858.9604,419.79766 1868.44413,418.593956 1876.46895,416.186511 C1884.49376,413.779066 1891.2418,411.07985 1896.71327,408.088782 C1901.63759,405.396821 1905.64593,402.94126 1908.73839,400.72204 L1909.73529,399.991053 C1912.94522,397.583608 1915.27968,396.379904 1916.73873,396.379904 C1918.63551,396.379904 1920.09454,397.109421 1921.11588,398.568479 L1926.80618,405.57192 C1923.30444,409.949093 1918.672,414.034393 1912.90873,417.827942 C1907.14545,421.621492 1900.72569,424.867846 1893.64926,427.567103 C1886.57283,430.266359 1878.98585,432.418437 1870.88808,434.0234 C1862.79031,435.628363 1854.65619,436.430833 1846.48546,436.430833 C1831.60308,436.430833 1818.03405,433.841044 1805.77796,428.66139 C1793.52188,423.481736 1783.01682,415.931226 1774.26248,406.009635 C1765.50813,396.088044 1758.76009,383.941572 1754.01816,369.569855 C1749.27622,355.198139 1746.90529,338.747512 1746.90529,320.217481 C1746.90529,304.605565 1749.13031,290.197588 1753.58044,276.993118 C1758.03057,263.788647 1764.45032,252.408169 1772.8399,242.851342 C1781.22948,233.294515 1791.51569,225.816957 1803.69882,220.418445 C1815.88195,215.019932 1829.70631,212.320716 1845.17232,212.320716 Z M1845.39118,227.859601 C1834.15643,227.859601 1824.08909,229.610444 1815.18884,233.112182 C1806.28859,236.61392 1798.59217,241.647593 1792.09937,248.213352 C1785.60656,254.779111 1780.35403,262.657903 1776.34162,271.849966 C1772.32922,281.042028 1769.66648,291.328229 1768.35332,302.708878 L1911.92387,302.708878 C1911.92387,291.036418 1910.31893,280.567837 1907.109,271.302822 C1903.89908,262.037806 1899.37606,254.19549 1893.53983,247.775637 C1887.7036,241.355783 1880.70023,236.431538 1872.52951,233.002753 C1864.35879,229.573968 1855.31277,227.859601 1845.39118,227.859601 Z M1966.92281,215.822436 L1966.92281,355.015829 C1966.92281,375.442635 1971.59172,391.455551 1980.92969,403.055058 C1990.26766,414.654566 2004.49326,420.454233 2023.60691,420.454233 C2037.75977,420.454233 2050.96404,416.843119 2063.22012,409.620785 C2075.47621,402.39845 2086.49193,392.36758 2096.26761,379.527873 L2096.26761,215.822436 L2117.27794,215.822436 L2117.27794,433.585685 L2105.67849,433.585685 C2101.59312,433.585685 2099.47752,431.688938 2099.33162,427.895389 L2097.3619,395.504474 C2087.2944,408.052368 2075.65859,418.119714 2062.45412,425.706813 C2049.24965,433.293913 2034.54987,437.087405 2018.35433,437.087405 C2006.24415,437.087405 1995.66614,435.190659 1986.61999,431.397109 C1977.57383,427.60356 1970.0598,422.132176 1964.07766,414.982794 C1958.09552,407.833412 1953.57251,399.225102 1950.50849,389.157605 C1947.44447,379.090108 1945.91248,367.70963 1945.91248,355.015829 L1945.91248,215.822436 L1966.92281,215.822436 Z" id="BeyondBleu"></path>
                <path d="M775.915927,533.290158 L775.915927,556.620785 L763.585989,556.620785 L763.585989,490.341638 L785.17484,490.341638 C789.605695,490.341638 793.440618,490.86111 796.679726,491.900069 C799.918834,492.939028 802.592586,494.390493 804.701061,496.254508 C806.809537,498.118523 808.367952,500.349196 809.376354,502.946593 C810.384755,505.543991 810.888949,508.385807 810.888949,511.472127 C810.888949,514.680677 810.354198,517.621804 809.284681,520.295595 C808.215165,522.969387 806.610914,525.268813 804.47188,527.193944 C802.332847,529.119074 799.659095,530.616375 796.450545,531.685891 C793.241995,532.755408 789.483464,533.290158 785.17484,533.290158 L775.915927,533.290158 Z M775.915927,523.664556 L785.17484,523.664556 C787.436104,523.664556 789.407041,523.381902 791.08771,522.816586 C792.768379,522.25127 794.15873,521.441506 795.258804,520.387268 C796.358878,519.33303 797.183922,518.049629 797.733959,516.537027 C798.283996,515.024425 798.55901,513.336141 798.55901,511.472127 C798.55901,509.699785 798.283996,508.095534 797.733959,506.659326 C797.183922,505.223117 796.358878,504.000831 795.258804,502.992429 C794.15873,501.984028 792.768379,501.21246 791.08771,500.677701 C789.407041,500.142943 787.436104,499.875568 785.17484,499.875568 L775.915927,499.875568 L775.915927,523.664556 Z M854.896852,496.575361 L851.871662,502.396559 C851.535529,503.068826 851.145925,503.542462 850.702839,503.817481 C850.259754,504.0925 849.732643,504.230007 849.12149,504.230007 C848.510338,504.230007 847.822802,503.993189 847.058861,503.519546 C846.294921,503.045903 845.393485,502.518792 844.354525,501.938197 C843.315566,501.357602 842.100919,500.830491 840.710547,500.356848 C839.320176,499.883205 837.677728,499.646387 835.783156,499.646387 C834.071929,499.646387 832.582268,499.852648 831.314126,500.265175 C830.045985,500.677703 828.976484,501.25065 828.105592,501.984033 C827.2347,502.717416 826.58536,503.595934 826.157554,504.619615 C825.729747,505.643295 825.515847,506.766271 825.515847,507.988575 C825.515847,509.547014 825.951286,510.845693 826.822179,511.884652 C827.693071,512.923612 828.846604,513.809769 830.282812,514.543152 C831.71902,515.276535 833.353828,515.933514 835.187285,516.514109 C837.020742,517.094704 838.892369,517.713486 840.80222,518.370475 C842.712071,519.027464 844.583697,519.791393 846.417155,520.662285 C848.250612,521.533177 849.88542,522.633235 851.321628,523.962491 C852.757836,525.291748 853.911369,526.918917 854.782261,528.844047 C855.653153,530.769177 856.088593,533.1068 856.088593,535.856986 C856.088593,538.851632 855.57676,541.655252 854.55308,544.267928 C853.5294,546.880605 852.032099,549.157113 850.061132,551.097522 C848.090166,553.037931 845.68379,554.565789 842.841931,555.681142 C840.000072,556.796496 836.745734,557.354164 833.07882,557.354164 C830.970344,557.354164 828.892457,557.147903 826.845097,556.735375 C824.797736,556.322847 822.834439,555.734622 820.955145,554.970681 C819.075851,554.206741 817.318814,553.290026 815.683982,552.220509 C814.049149,551.150993 812.590045,549.959263 811.306625,548.645286 L814.881848,542.732416 C815.217982,542.304609 815.622864,541.945562 816.096508,541.655265 C816.570151,541.364968 817.097262,541.219821 817.677857,541.219821 C818.441797,541.219821 819.26684,541.533032 820.153011,542.159463 C821.039182,542.785894 822.085765,543.48107 823.292791,544.24501 C824.499817,545.008951 825.920725,545.704126 827.555558,546.330557 C829.19039,546.956989 831.153688,547.2702 833.44551,547.2702 C836.959636,547.2702 839.679223,546.437517 841.604353,544.772127 C843.529483,543.106736 844.492034,540.715638 844.492034,537.598761 C844.492034,535.856977 844.056595,534.436069 843.185702,533.335994 C842.31481,532.23592 841.161277,531.311566 839.725069,530.562904 C838.288861,529.814243 836.654053,529.180182 834.820596,528.660702 C832.987138,528.141222 831.123152,527.575915 829.228579,526.964763 C827.334007,526.35361 825.47002,525.620238 823.636563,524.764625 C821.803105,523.909012 820.168297,522.793675 818.732089,521.418582 C817.295881,520.043489 816.142348,518.324649 815.271456,516.26201 C814.400564,514.19937 813.965124,511.655487 813.965124,508.630282 C813.965124,506.21623 814.4464,503.863329 815.408965,501.571507 C816.37153,499.279686 817.777159,497.247634 819.625895,495.475292 C821.474631,493.702951 823.7435,492.282043 826.432571,491.212526 C829.121641,490.143009 832.192636,489.608259 835.645647,489.608259 C839.557023,489.608259 843.162768,490.219402 846.462991,491.441707 C849.763214,492.664012 852.574473,494.375213 854.896852,496.575361 Z M890.88342,530.86084 L890.88342,556.620785 L878.553482,556.620785 L878.553482,530.86084 L854.397804,490.341638 L865.260983,490.341638 C866.3305,490.341638 867.178461,490.601374 867.804892,491.120853 C868.431324,491.640333 868.958435,492.297312 869.386241,493.09181 L881.532835,515.230695 C882.23566,516.544673 882.846803,517.789877 883.366283,518.966345 C883.885762,520.142814 884.359398,521.296347 884.787205,522.426979 C885.184454,521.265789 885.635172,520.096978 886.139373,518.920509 C886.643574,517.744041 887.247078,516.514115 887.949903,515.230695 L900.004824,493.09181 C900.340957,492.419542 900.845151,491.793121 901.517418,491.212526 C902.189686,490.631931 903.045286,490.341638 904.084246,490.341638 L914.993261,490.341638 L890.88342,530.86084 Z M959.184509,540.99064 C959.856777,540.99064 960.437363,541.250376 960.926285,541.769855 L965.784922,547.041019 C963.095852,550.371799 959.788039,552.923322 955.861385,554.695664 C951.934731,556.468006 947.221288,557.354164 941.720917,557.354164 C936.80114,557.354164 932.377991,556.513842 928.451337,554.833173 C924.524682,553.152504 921.171034,550.814881 918.39029,547.820234 C915.609547,544.825587 913.478185,541.250399 911.99614,537.094563 C910.514096,532.938727 909.773085,528.400988 909.773085,523.481211 C909.773085,518.500319 910.598128,513.939663 912.24824,509.799105 C913.898351,505.658548 916.220695,502.090999 919.215342,499.096352 C922.209989,496.101706 925.792816,493.771722 929.963931,492.106332 C934.135046,490.440941 938.741538,489.608259 943.783546,489.608259 C948.703323,489.608259 953.004243,490.395106 956.686436,491.968823 C960.36863,493.542541 963.523657,495.628067 966.151612,498.225465 L962.026354,503.95499 C961.781893,504.321681 961.468682,504.642531 961.086712,504.91755 C960.704741,505.192568 960.17763,505.330076 959.505363,505.330076 C958.802537,505.330076 958.084444,505.055061 957.351061,504.505024 C956.617678,503.954987 955.685685,503.359122 954.555053,502.717412 C953.424421,502.075702 951.995874,501.479838 950.269368,500.9298 C948.542863,500.379763 946.350386,500.104749 943.691873,500.104749 C940.574996,500.104749 937.710262,500.647138 935.097586,501.731934 C932.484909,502.816729 930.238958,504.367505 928.359664,506.384308 C926.480371,508.401111 925.013627,510.853323 923.959389,513.741019 C922.905151,516.628714 922.37804,519.875412 922.37804,523.481211 C922.37804,527.209241 922.905151,530.524693 923.959389,533.427667 C925.013627,536.330641 926.442174,538.775214 928.245074,540.761459 C930.047973,542.747704 932.171696,544.267923 934.616306,545.322161 C937.060915,546.376399 939.688831,546.90351 942.500132,546.90351 C944.180801,546.90351 945.70102,546.811838 947.060834,546.628493 C948.420648,546.445147 949.673492,546.154854 950.819403,545.757605 C951.965313,545.360356 953.050093,544.848523 954.073773,544.222092 C955.097453,543.595661 956.113479,542.824093 957.12188,541.907364 C957.427456,541.632345 957.748307,541.410806 958.084441,541.242739 C958.420574,541.074672 958.78726,540.99064 959.184509,540.99064 Z M1026.88973,556.620785 L1014.46812,556.620785 L1014.46812,527.652306 L983.391174,527.652306 L983.391174,556.620785 L970.969563,556.620785 L970.969563,490.341638 L983.391174,490.341638 L983.391174,518.851755 L1014.46812,518.851755 L1014.46812,490.341638 L1026.88973,490.341638 L1026.88973,556.620785 Z M1099.7286,523.481211 C1099.7286,528.339873 1098.91884,532.839415 1097.29928,536.979972 C1095.67973,541.12053 1093.40322,544.703357 1090.46969,547.728562 C1087.53616,550.753766 1084.00681,553.114307 1079.88153,554.810255 C1075.75625,556.506203 1071.18795,557.354164 1066.1765,557.354164 C1061.16505,557.354164 1056.58912,556.506203 1052.44856,554.810255 C1048.308,553.114307 1044.76337,550.753766 1041.81456,547.728562 C1038.86575,544.703357 1036.5816,541.12053 1034.96205,536.979972 C1033.3425,532.839415 1032.53273,528.339873 1032.53273,523.481211 C1032.53273,518.62255 1033.3425,514.123008 1034.96205,509.98245 C1036.5816,505.841893 1038.86575,502.259065 1041.81456,499.233861 C1044.76337,496.208657 1048.308,493.848116 1052.44856,492.152168 C1056.58912,490.45622 1061.16505,489.608259 1066.1765,489.608259 C1071.18795,489.608259 1075.75625,490.463859 1079.88153,492.175086 C1084.00681,493.886313 1087.53616,496.246853 1090.46969,499.256779 C1093.40322,502.266705 1095.67973,505.841893 1097.29928,509.98245 C1098.91884,514.123008 1099.7286,518.62255 1099.7286,523.481211 Z M1087.07781,523.481211 C1087.07781,519.844854 1086.59654,516.582877 1085.63397,513.695182 C1084.67141,510.807487 1083.28869,508.355275 1081.48579,506.338472 C1079.68289,504.321669 1077.49042,502.778533 1074.9083,501.709016 C1072.32618,500.639499 1069.41561,500.104749 1066.1765,500.104749 C1062.9374,500.104749 1060.01919,500.639499 1057.42179,501.709016 C1054.82439,502.778533 1052.61664,504.321669 1050.79846,506.338472 C1048.98028,508.355275 1047.58229,510.807487 1046.60445,513.695182 C1045.6266,516.582877 1045.13769,519.844854 1045.13769,523.481211 C1045.13769,527.117568 1045.6266,530.379545 1046.60445,533.26724 C1047.58229,536.154935 1048.98028,538.599508 1050.79846,540.601032 C1052.61664,542.602556 1054.82439,544.138054 1057.42179,545.207571 C1060.01919,546.277087 1062.9374,546.811838 1066.1765,546.811838 C1069.41561,546.811838 1072.32618,546.277087 1074.9083,545.207571 C1077.49042,544.138054 1079.68289,542.602556 1081.48579,540.601032 C1083.28869,538.599508 1084.67141,536.154935 1085.63397,533.26724 C1086.59654,530.379545 1087.07781,527.117568 1087.07781,523.481211 Z M1148.45763,490.341638 L1148.45763,500.471438 L1128.51889,500.471438 L1128.51889,556.620785 L1116.18895,556.620785 L1116.18895,500.471438 L1096.15853,500.471438 L1096.15853,490.341638 L1148.45763,490.341638 Z M1208.09568,556.620785 L1195.67407,556.620785 L1195.67407,527.652306 L1164.59713,527.652306 L1164.59713,556.620785 L1152.17552,556.620785 L1152.17552,490.341638 L1164.59713,490.341638 L1164.59713,518.851755 L1195.67407,518.851755 L1195.67407,490.341638 L1208.09568,490.341638 L1208.09568,556.620785 Z M1259.16236,490.341638 L1259.16236,500.150585 L1229.78135,500.150585 L1229.78135,518.530902 L1252.92864,518.530902 L1252.92864,528.018995 L1229.78135,528.018995 L1229.78135,546.766001 L1259.16236,546.766001 L1259.16236,556.620785 L1217.35974,556.620785 L1217.35974,490.341638 L1259.16236,490.341638 Z M1278.46455,530.723331 L1278.46455,556.620785 L1266.13461,556.620785 L1266.13461,490.341638 L1286.34838,490.341638 C1290.8709,490.341638 1294.74403,490.807635 1297.96785,491.739642 C1301.19168,492.67165 1303.83488,493.977968 1305.89752,495.658637 C1307.96016,497.339306 1309.47274,499.34844 1310.4353,501.686098 C1311.39787,504.023756 1311.87914,506.598197 1311.87914,509.409498 C1311.87914,511.640204 1311.55065,513.748648 1310.89366,515.734893 C1310.23667,517.721139 1309.2894,519.524011 1308.05182,521.143565 C1306.81423,522.763119 1305.28638,524.184027 1303.4682,525.406332 C1301.65002,526.628637 1299.57977,527.606466 1297.25739,528.339849 C1298.81583,529.22602 1300.16035,530.494142 1301.29098,532.144253 L1317.88368,556.620785 L1306.79132,556.620785 C1305.72181,556.620785 1304.81273,556.406884 1304.06407,555.979078 C1303.31541,555.551271 1302.68135,554.940128 1302.16187,554.14563 L1288.22766,532.923469 C1287.70818,532.128971 1287.13523,531.563663 1286.5088,531.227529 C1285.88237,530.891395 1284.95802,530.723331 1283.73571,530.723331 L1278.46455,530.723331 Z M1278.46455,521.876944 L1286.16503,521.876944 C1288.48741,521.876944 1290.51182,521.586651 1292.23833,521.006056 C1293.96483,520.425462 1295.38574,519.623336 1296.5011,518.599656 C1297.61645,517.575976 1298.44913,516.361328 1298.99917,514.955678 C1299.54921,513.550027 1299.82422,512.006891 1299.82422,510.326222 C1299.82422,506.964883 1298.71652,504.382803 1296.5011,502.579904 C1294.28567,500.777004 1290.90146,499.875568 1286.34838,499.875568 L1278.46455,499.875568 L1278.46455,521.876944 Z M1379.90521,556.620785 L1370.37128,556.620785 C1369.30177,556.620785 1368.42325,556.353409 1367.7357,555.818651 C1367.04816,555.283893 1366.5516,554.619274 1366.24603,553.824776 L1361.29572,540.303097 L1333.83983,540.303097 L1328.88952,553.824776 C1328.64506,554.527602 1328.16379,555.169302 1327.44568,555.749897 C1326.72758,556.330492 1325.84906,556.620785 1324.8101,556.620785 L1315.23033,556.620785 L1341.2653,490.341638 L1353.87025,490.341638 L1379.90521,556.620785 Z M1337.00253,531.594219 L1358.13302,531.594219 L1349.78367,508.780681 C1349.49433,507.981413 1349.1835,507.083315 1348.85119,506.086373 C1348.4081,504.757117 1347.97266,503.313291 1347.54486,501.754852 C1347.11705,503.313291 1346.69689,504.764756 1346.28436,506.109291 C1345.87183,507.453826 1345.46695,508.630277 1345.0697,509.638679 L1337.00253,531.594219 Z M1395.35716,533.290158 L1395.35716,556.620785 L1383.02723,556.620785 L1383.02723,490.341638 L1404.61608,490.341638 C1409.04693,490.341638 1412.88185,490.86111 1416.12096,491.900069 C1419.36007,492.939028 1422.03382,494.390493 1424.1423,496.254508 C1426.25077,498.118523 1427.80919,500.349196 1428.81759,502.946593 C1429.82599,505.543991 1430.33018,508.385807 1430.33018,511.472127 C1430.33018,514.680677 1429.79543,517.621804 1428.72592,520.295595 C1427.6564,522.969387 1426.05215,525.268813 1423.91312,527.193944 C1421.77408,529.119074 1419.10033,530.616375 1415.89178,531.685891 C1412.68323,532.755408 1408.9247,533.290158 1404.61608,533.290158 L1395.35716,533.290158 Z M1395.35716,523.664556 L1404.61608,523.664556 C1406.87734,523.664556 1408.84828,523.381902 1410.52895,522.816586 C1412.20961,522.25127 1413.59997,521.441506 1414.70004,520.387268 C1415.80011,519.33303 1416.62516,518.049629 1417.1752,516.537027 C1417.72523,515.024425 1418.00025,513.336141 1418.00025,511.472127 C1418.00025,509.699785 1417.72523,508.095534 1417.1752,506.659326 C1416.62516,505.223117 1415.80011,504.000831 1414.70004,502.992429 C1413.59997,501.984028 1412.20961,501.21246 1410.52895,500.677701 C1408.84828,500.142943 1406.87734,499.875568 1404.61608,499.875568 L1395.35716,499.875568 L1395.35716,523.664556 Z M1465.26252,530.86084 L1465.26252,556.620785 L1452.93258,556.620785 L1452.93258,530.86084 L1428.7769,490.341638 L1439.64008,490.341638 C1440.7096,490.341638 1441.55756,490.601374 1442.18399,491.120853 C1442.81042,491.640333 1443.33754,492.297312 1443.76534,493.09181 L1455.91194,515.230695 C1456.61476,516.544673 1457.2259,517.789877 1457.74538,518.966345 C1458.26486,520.142814 1458.7385,521.296347 1459.16631,522.426979 C1459.56355,521.265789 1460.01427,520.096978 1460.51847,518.920509 C1461.02267,517.744041 1461.62618,516.514115 1462.329,515.230695 L1474.38392,493.09181 C1474.72006,492.419542 1475.22425,491.793121 1475.89652,491.212526 C1476.56879,490.631931 1477.42439,490.341638 1478.46335,490.341638 L1489.37236,490.341638 L1465.26252,530.86084 Z M1532.9219,490.204129 C1535.33595,490.204129 1537.53607,490.593733 1539.52232,491.372953 C1541.50856,492.152172 1543.2274,493.183476 1544.67889,494.466896 C1546.13038,495.750316 1547.27627,497.239978 1548.1166,498.935926 C1548.95694,500.631874 1549.43821,502.39655 1549.56044,504.230007 L1544.47263,505.238403 C1544.31984,505.268961 1544.18233,505.28424 1544.0601,505.28424 C1543.66285,505.28424 1543.28853,505.177289 1542.93711,504.963386 C1542.5857,504.749483 1542.3336,504.367518 1542.18082,503.817481 C1541.96691,503.022983 1541.62314,502.19794 1541.1495,501.342326 C1540.67586,500.486713 1540.06471,499.707505 1539.31605,499.00468 C1538.56739,498.301855 1537.66595,497.721269 1536.61172,497.262904 C1535.55748,496.80454 1534.32755,496.575361 1532.9219,496.575361 C1531.39402,496.575361 1530.01895,496.819819 1528.79664,497.308741 C1527.57434,497.797662 1526.52776,498.477559 1525.65687,499.348451 C1524.78597,500.219344 1524.11372,501.243009 1523.64007,502.419477 C1523.16643,503.595945 1522.92961,504.871707 1522.92961,506.2468 C1522.92961,507.316316 1523.05948,508.339981 1523.31922,509.317825 C1523.57896,510.295669 1523.96856,511.281137 1524.48804,512.27426 C1525.00752,513.267383 1525.67978,514.291048 1526.50483,515.345286 C1527.32989,516.399524 1528.323,517.507221 1529.48419,518.66841 L1548.3687,537.873778 C1549.52989,535.826418 1550.45425,533.679777 1551.14179,531.433792 C1551.82934,529.187807 1552.29534,526.934216 1552.5398,524.672953 C1552.60091,524.092358 1552.78426,523.634 1553.08983,523.297866 C1553.39541,522.961733 1553.82321,522.793668 1554.37324,522.793668 L1559.41523,522.793668 C1559.35411,526.307795 1558.7888,529.760754 1557.71929,533.15265 C1556.64977,536.544546 1555.10663,539.72249 1553.08983,542.686579 L1566.84069,556.620785 L1558.95687,556.620785 C1558.07069,556.620785 1557.3526,556.513835 1556.80256,556.299931 C1556.25253,556.086028 1555.64138,555.642949 1554.96912,554.970681 L1548.3687,548.324432 C1545.49629,551.105176 1542.18847,553.305291 1538.44517,554.924845 C1534.70186,556.544399 1530.58428,557.354164 1526.09231,557.354164 C1523.6477,557.354164 1521.24896,556.941642 1518.89603,556.116586 C1516.54309,555.291531 1514.44228,554.092162 1512.59355,552.518445 C1510.74481,550.944727 1509.25515,549.027265 1508.12452,546.766001 C1506.99389,544.504737 1506.42858,541.953214 1506.42858,539.111356 C1506.42858,536.972322 1506.78763,534.94791 1507.50573,533.038059 C1508.22383,531.128208 1509.21694,529.363532 1510.48508,527.743978 C1511.75322,526.124424 1513.25816,524.672959 1514.99995,523.389539 C1516.74173,522.106119 1518.65156,521.006061 1520.72947,520.089332 C1518.86546,517.736396 1517.49039,515.444609 1516.60422,513.213902 C1515.71804,510.983196 1515.27497,508.67613 1515.27497,506.292636 C1515.27497,504.06193 1515.67985,501.968764 1516.48962,500.013076 C1517.2994,498.057389 1518.46821,496.353827 1519.99609,494.90234 C1521.52398,493.450853 1523.38032,492.304959 1525.56519,491.464625 C1527.75006,490.62429 1530.20227,490.204129 1532.9219,490.204129 Z M1514.72493,538.469649 C1514.72493,540.455894 1515.09162,542.205292 1515.825,543.717894 C1516.55838,545.230496 1517.52093,546.506258 1518.71268,547.545217 C1519.90443,548.584176 1521.26422,549.371023 1522.7921,549.905781 C1524.31998,550.440539 1525.8784,550.707915 1527.46739,550.707915 C1530.88985,550.707915 1533.96084,550.081493 1536.68047,548.82863 C1539.4001,547.575768 1541.79884,545.910403 1543.87675,543.832485 L1524.48804,524.260427 C1521.24893,526.002211 1518.812,528.087737 1517.17717,530.517068 C1515.54234,532.946399 1514.72493,535.597233 1514.72493,538.469649 Z M1637.06175,540.99064 C1637.73402,540.99064 1638.31461,541.250376 1638.80353,541.769855 L1643.66216,547.041019 C1640.97309,550.371799 1637.66528,552.923322 1633.73863,554.695664 C1629.81197,556.468006 1625.09853,557.354164 1619.59816,557.354164 C1614.67838,557.354164 1610.25523,556.513842 1606.32858,554.833173 C1602.40192,553.152504 1599.04828,550.814881 1596.26753,547.820234 C1593.48679,544.825587 1591.35543,541.250399 1589.87338,537.094563 C1588.39134,532.938727 1587.65033,528.400988 1587.65033,523.481211 C1587.65033,518.500319 1588.47537,513.939663 1590.12548,509.799105 C1591.77559,505.658548 1594.09794,502.090999 1597.09258,499.096352 C1600.08723,496.101706 1603.67006,493.771722 1607.84117,492.106332 C1612.01229,490.440941 1616.61878,489.608259 1621.66079,489.608259 C1626.58056,489.608259 1630.88149,490.395106 1634.56368,491.968823 C1638.24587,493.542541 1641.4009,495.628067 1644.02885,498.225465 L1639.9036,503.95499 C1639.65913,504.321681 1639.34592,504.642531 1638.96395,504.91755 C1638.58198,505.192568 1638.05487,505.330076 1637.3826,505.330076 C1636.67978,505.330076 1635.96169,505.055061 1635.2283,504.505024 C1634.49492,503.954987 1633.56293,503.359122 1632.4323,502.717412 C1631.30166,502.075702 1629.87312,501.479838 1628.14661,500.9298 C1626.4201,500.379763 1624.22763,500.104749 1621.56912,500.104749 C1618.45224,500.104749 1615.5875,500.647138 1612.97483,501.731934 C1610.36215,502.816729 1608.1162,504.367505 1606.23691,506.384308 C1604.35761,508.401111 1602.89087,510.853323 1601.83663,513.741019 C1600.78239,516.628714 1600.25528,519.875412 1600.25528,523.481211 C1600.25528,527.209241 1600.78239,530.524693 1601.83663,533.427667 C1602.89087,536.330641 1604.31942,538.775214 1606.12232,540.761459 C1607.92522,542.747704 1610.04894,544.267923 1612.49355,545.322161 C1614.93816,546.376399 1617.56607,546.90351 1620.37737,546.90351 C1622.05804,546.90351 1623.57826,546.811838 1624.93808,546.628493 C1626.29789,546.445147 1627.55073,546.154854 1628.69664,545.757605 C1629.84256,545.360356 1630.92733,544.848523 1631.95102,544.222092 C1632.9747,543.595661 1633.99072,542.824093 1634.99912,541.907364 C1635.3047,541.632345 1635.62555,541.410806 1635.96168,541.242739 C1636.29782,541.074672 1636.6645,540.99064 1637.06175,540.99064 Z M1712.42162,523.481211 C1712.42162,528.339873 1711.61185,532.839415 1709.9923,536.979972 C1708.37274,541.12053 1706.09624,544.703357 1703.1627,547.728562 C1700.22917,550.753766 1696.69982,553.114307 1692.57454,554.810255 C1688.44926,556.506203 1683.88097,557.354164 1678.86952,557.354164 C1673.85807,557.354164 1669.28213,556.506203 1665.14157,554.810255 C1661.00102,553.114307 1657.45639,550.753766 1654.50758,547.728562 C1651.55877,544.703357 1649.27462,541.12053 1647.65506,536.979972 C1646.03551,532.839415 1645.22575,528.339873 1645.22575,523.481211 C1645.22575,518.62255 1646.03551,514.123008 1647.65506,509.98245 C1649.27462,505.841893 1651.55877,502.259065 1654.50758,499.233861 C1657.45639,496.208657 1661.00102,493.848116 1665.14157,492.152168 C1669.28213,490.45622 1673.85807,489.608259 1678.86952,489.608259 C1683.88097,489.608259 1688.44926,490.463859 1692.57454,492.175086 C1696.69982,493.886313 1700.22917,496.246853 1703.1627,499.256779 C1706.09624,502.266705 1708.37274,505.841893 1709.9923,509.98245 C1711.61185,514.123008 1712.42162,518.62255 1712.42162,523.481211 Z M1699.77082,523.481211 C1699.77082,519.844854 1699.28955,516.582877 1698.32698,513.695182 C1697.36442,510.807487 1695.98171,508.355275 1694.17881,506.338472 C1692.37591,504.321669 1690.18343,502.778533 1687.60131,501.709016 C1685.01919,500.639499 1682.10862,500.104749 1678.86952,500.104749 C1675.63041,500.104749 1672.7122,500.639499 1670.1148,501.709016 C1667.5174,502.778533 1665.30965,504.321669 1663.49147,506.338472 C1661.67329,508.355275 1660.2753,510.807487 1659.29746,513.695182 C1658.31962,516.582877 1657.8307,519.844854 1657.8307,523.481211 C1657.8307,527.117568 1658.31962,530.379545 1659.29746,533.26724 C1660.2753,536.154935 1661.67329,538.599508 1663.49147,540.601032 C1665.30965,542.602556 1667.5174,544.138054 1670.1148,545.207571 C1672.7122,546.277087 1675.63041,546.811838 1678.86952,546.811838 C1682.10862,546.811838 1685.01919,546.277087 1687.60131,545.207571 C1690.18343,544.138054 1692.37591,542.602556 1694.17881,540.601032 C1695.98171,538.599508 1697.36442,536.154935 1698.32698,533.26724 C1699.28955,530.379545 1699.77082,527.117568 1699.77082,523.481211 Z M1724.48169,490.341638 C1725.03172,490.341638 1725.49008,490.364556 1725.85677,490.410392 C1726.22346,490.456229 1726.55195,490.5479 1726.84225,490.685409 C1727.13255,490.822919 1727.4152,491.02154 1727.69022,491.28128 C1727.96524,491.54102 1728.27081,491.884788 1728.60695,492.312595 L1763.39662,536.636201 C1763.27439,535.566684 1763.19036,534.520101 1763.14452,533.496421 C1763.09869,532.472741 1763.07577,531.51783 1763.07577,530.631659 L1763.07577,490.341638 L1773.93895,490.341638 L1773.93895,556.620785 L1767.56772,556.620785 C1766.58987,556.620785 1765.78011,556.467999 1765.1384,556.162423 C1764.49669,555.856846 1763.87027,555.306817 1763.25911,554.512319 L1728.60695,510.372058 C1728.69862,511.349902 1728.76737,512.320092 1728.81321,513.282657 C1728.85904,514.245222 1728.88196,515.12374 1728.88196,515.918238 L1728.88196,556.620785 L1718.01878,556.620785 L1718.01878,490.341638 L1724.48169,490.341638 Z M1821.75126,496.575361 L1818.72607,502.396559 C1818.38993,503.068826 1818.00033,503.542462 1817.55724,503.817481 C1817.11416,504.0925 1816.58705,504.230007 1815.97589,504.230007 C1815.36474,504.230007 1814.67721,503.993189 1813.91327,503.519546 C1813.14933,503.045903 1812.24789,502.518792 1811.20893,501.938197 C1810.16997,501.357602 1808.95532,500.830491 1807.56495,500.356848 C1806.17458,499.883205 1804.53213,499.646387 1802.63756,499.646387 C1800.92633,499.646387 1799.43667,499.852648 1798.16853,500.265175 C1796.90039,500.677703 1795.83089,501.25065 1794.96,501.984033 C1794.0891,502.717416 1793.43976,503.595934 1793.01196,504.619615 C1792.58415,505.643295 1792.37025,506.766271 1792.37025,507.988575 C1792.37025,509.547014 1792.80569,510.845693 1793.67658,511.884652 C1794.54747,512.923612 1795.70101,513.809769 1797.13722,514.543152 C1798.57342,515.276535 1800.20823,515.933514 1802.04169,516.514109 C1803.87515,517.094704 1805.74677,517.713486 1807.65662,518.370475 C1809.56648,519.027464 1811.4381,519.791393 1813.27156,520.662285 C1815.10502,521.533177 1816.73982,522.633235 1818.17603,523.962491 C1819.61224,525.291748 1820.76577,526.918917 1821.63667,528.844047 C1822.50756,530.769177 1822.943,533.1068 1822.943,535.856986 C1822.943,538.851632 1822.43116,541.655252 1821.40748,544.267928 C1820.3838,546.880605 1818.8865,549.157113 1816.91554,551.097522 C1814.94457,553.037931 1812.53819,554.565789 1809.69634,555.681142 C1806.85448,556.796496 1803.60014,557.354164 1799.93322,557.354164 C1797.82475,557.354164 1795.74686,557.147903 1793.6995,556.735375 C1791.65214,556.322847 1789.68884,555.734622 1787.80955,554.970681 C1785.93026,554.206741 1784.17322,553.290026 1782.53839,552.220509 C1780.90355,551.150993 1779.44445,549.959263 1778.16103,548.645286 L1781.73625,542.732416 C1782.07239,542.304609 1782.47727,541.945562 1782.95091,541.655265 C1783.42455,541.364968 1783.95167,541.219821 1784.53226,541.219821 C1785.2962,541.219821 1786.12124,541.533032 1787.00742,542.159463 L1787.70212,542.642176 C1788.42691,543.13778 1789.24193,543.672055 1790.1472,544.24501 C1791.35422,545.008951 1792.77513,545.704126 1794.40996,546.330557 C1796.04479,546.956989 1798.00809,547.2702 1800.29991,547.2702 C1803.81404,547.2702 1806.53363,546.437517 1808.45876,544.772127 C1810.38389,543.106736 1811.34644,540.715638 1811.34644,537.598761 C1811.34644,535.856977 1810.911,534.436069 1810.04011,533.335994 C1809.16921,532.23592 1808.01568,531.311566 1806.57947,530.562904 C1805.14327,529.814243 1803.50846,529.180182 1801.675,528.660702 C1799.84154,528.141222 1797.97756,527.575915 1796.08298,526.964763 C1794.18841,526.35361 1792.32442,525.620238 1790.49097,524.764625 C1788.65751,523.909012 1787.0227,522.793675 1785.58649,521.418582 C1784.15029,520.043489 1782.99675,518.324649 1782.12586,516.26201 C1781.25497,514.19937 1780.81953,511.655487 1780.81953,508.630282 C1780.81953,506.21623 1781.3008,503.863329 1782.26337,501.571507 C1783.22593,499.279686 1784.63156,497.247634 1786.4803,495.475292 C1788.32904,493.702951 1790.5979,492.282043 1793.28698,491.212526 C1795.97605,490.143009 1799.04704,489.608259 1802.50005,489.608259 C1806.41143,489.608259 1810.01717,490.219402 1813.31739,491.441707 C1816.61762,492.664012 1819.42888,494.375213 1821.75126,496.575361 Z M1854.94182,546.674329 C1857.32531,546.674329 1859.45667,546.277086 1861.33597,545.482588 C1863.21526,544.68809 1864.80423,543.572753 1866.10293,542.136545 C1867.40163,540.700337 1868.39474,538.958579 1869.08228,536.911218 C1869.76983,534.863858 1870.1136,532.57207 1870.1136,530.035788 L1870.1136,490.341638 L1882.44354,490.341638 L1882.44354,530.035788 C1882.44354,533.977721 1881.80948,537.621663 1880.54133,540.967722 C1879.27319,544.313781 1877.4474,547.201433 1875.06391,549.630764 C1872.68041,552.060095 1869.79276,553.954639 1866.40087,555.314453 C1863.00897,556.674267 1859.18932,557.354164 1854.94182,557.354164 C1850.69431,557.354164 1846.87466,556.674267 1843.48277,555.314453 C1840.09087,553.954639 1837.21086,552.060095 1834.84264,549.630764 C1832.47443,547.201433 1830.65627,544.313781 1829.38813,540.967722 C1828.11999,537.621663 1827.48593,533.977721 1827.48593,530.035788 L1827.48593,490.341638 L1839.81587,490.341638 L1839.81587,529.989952 C1839.81587,532.526234 1840.15964,534.818021 1840.84718,536.865382 C1841.53473,538.912743 1842.5202,540.66214 1843.80362,542.113627 C1845.08704,543.565114 1846.66837,544.68809 1848.54767,545.482588 C1850.42696,546.277086 1852.55832,546.674329 1854.94182,546.674329 Z M1903.21249,546.445148 L1929.75165,546.445148 L1929.75165,556.620785 L1890.88255,556.620785 L1890.88255,490.341638 L1903.21249,490.341638 L1903.21249,546.445148 Z M1972.79699,490.341638 L1972.79699,500.471438 L1952.85824,500.471438 L1952.85824,556.620785 L1940.5283,556.620785 L1940.5283,500.471438 L1920.49788,500.471438 L1920.49788,490.341638 L1972.79699,490.341638 Z M1990.40324,556.620785 L1978.02747,556.620785 L1978.02747,490.341638 L1990.40324,490.341638 L1990.40324,556.620785 Z M2007.6428,490.341638 C2008.19284,490.341638 2008.6512,490.364556 2009.01789,490.410392 C2009.38458,490.456229 2009.71307,490.5479 2010.00337,490.685409 C2010.29366,490.822919 2010.57632,491.02154 2010.85134,491.28128 C2011.12635,491.54102 2011.43193,491.884788 2011.76806,492.312595 L2046.55774,536.636201 C2046.43551,535.566684 2046.35147,534.520101 2046.30564,533.496421 C2046.2598,532.472741 2046.23688,531.51783 2046.23688,530.631659 L2046.23688,490.341638 L2057.10006,490.341638 L2057.10006,556.620785 L2050.72883,556.620785 C2049.75099,556.620785 2048.94122,556.467999 2048.29951,556.162423 C2047.6578,555.856846 2047.03138,555.306817 2046.42023,554.512319 L2011.76806,510.372058 C2011.85973,511.349902 2011.92849,512.320092 2011.97432,513.282657 C2012.02016,514.245222 2012.04308,515.12374 2012.04308,515.918238 L2012.04308,556.620785 L2001.1799,556.620785 L2001.1799,490.341638 L2007.6428,490.341638 Z M2096.79936,547.545217 C2099.58011,547.545217 2102.00176,547.29312 2104.0644,546.788919 C2106.12704,546.284719 2108.09034,545.589543 2109.95435,544.703372 L2109.95435,532.648451 L2101.658,532.648451 C2100.8635,532.648451 2100.23708,532.426912 2099.77872,531.983827 C2099.32035,531.540741 2099.09117,530.998351 2099.09117,530.356641 L2099.09117,523.389539 L2121.13839,523.389539 L2121.13839,550.203716 C2119.45772,551.426021 2117.70832,552.487883 2115.89014,553.389332 C2114.07196,554.290782 2112.13158,555.031793 2110.06894,555.612388 C2108.0063,556.192983 2105.79855,556.628422 2103.44561,556.91872 C2101.09268,557.209017 2098.55643,557.354164 2095.8368,557.354164 C2091.0087,557.354164 2086.56263,556.513842 2082.49847,554.833173 C2078.4343,553.152504 2074.92023,550.814881 2071.95614,547.820234 C2068.99205,544.825587 2066.67735,541.250399 2065.01196,537.094563 C2063.34657,532.938727 2062.51388,528.400988 2062.51388,523.481211 C2062.51388,518.500319 2063.32365,513.932024 2064.9432,509.776187 C2066.56276,505.620351 2068.86218,502.045163 2071.84155,499.050516 C2074.82092,496.055869 2078.4343,493.733525 2082.68181,492.083414 C2086.92932,490.433302 2091.69624,489.608259 2096.98271,489.608259 C2102.39141,489.608259 2107.07429,490.410384 2111.0315,492.014659 C2114.98872,493.618934 2118.34236,495.704461 2121.09255,498.271301 L2117.51733,503.863317 C2116.8145,504.993949 2115.88251,505.559257 2114.72132,505.559257 C2113.98793,505.559257 2113.23928,505.314799 2112.47534,504.825877 C2111.4975,504.245283 2110.49675,503.664697 2109.47307,503.084102 C2108.44939,502.503507 2107.31878,501.999314 2106.08119,501.571507 C2104.84361,501.143701 2103.45326,500.792293 2101.9101,500.517275 C2100.36694,500.242256 2098.58698,500.104749 2096.57018,500.104749 C2093.30052,500.104749 2090.34411,500.654778 2087.70088,501.754852 C2085.05764,502.854926 2082.80405,504.42862 2080.94004,506.475981 C2079.07602,508.523341 2077.63984,510.983193 2076.63143,513.855609 C2075.62303,516.728025 2075.11884,519.936527 2075.11884,523.481211 C2075.11884,527.300914 2075.65359,530.700398 2076.72311,533.679766 C2077.79262,536.659134 2079.28992,539.172461 2081.21505,541.219821 C2083.14018,543.267182 2085.43197,544.833236 2088.09048,545.918032 C2090.749,547.002827 2093.65193,547.545217 2096.79936,547.545217 Z" id="PSYCHOTHERAPY&amp;CONSULTING"></path>
            </g>
            <g id="Logo" transform="translate(458.717717, 458.567377) rotate(-15.000000) translate(-458.717717, -458.567377) translate(84.717717, 84.567377)">
                <circle id="Oval" fill="#1E3752" cx="373.709566" cy="373.709566" r="373.709566"></circle>
                <g id="Group" transform="translate(115.622849, 142.463868)" fill="#FFFFFF" fill-rule="nonzero">
                    <path d="M472.688947,123.499656 C472.688947,58.461478 449.058763,25.9428768 401.797687,25.9428768 C369.712186,25.9428768 340.445445,46.9715722 313.996586,89.0295939 C290.149254,126.751737 278.225767,162.522198 278.225767,196.342051 L278.225767,253.575361 L326.353778,253.575361 C376.216381,253.575361 412.420424,244.686944 434.966992,226.909842 C460.115088,206.531213 472.688947,172.061495 472.688947,123.499656 Z M404.399201,0.578114246 C438.219054,0.578114246 464.017144,13.5855547 481.794246,39.6008259 C497.836997,62.5809821 505.858252,91.4141418 505.858252,126.10117 C505.858252,151.219363 500.199525,175.932997 488.881908,200.242764 L487.647653,202.845836 C473.772841,232.32981 455.996006,250.540227 434.316614,257.477632 C491.116622,264.415038 519.516201,289.345966 519.516201,332.271163 C519.516201,345.040325 516.77705,356.439731 511.298672,366.469685 L510.410901,368.041982 C481.360515,420.072524 431.49866,446.087405 360.82384,446.087405 C338.710859,446.087405 310.744862,441.751592 276.92501,433.079835 C276.92501,433.947011 276.708219,434.814173 276.274631,435.681349 C276.274631,436.982112 277.141794,441.101135 278.876146,448.038541 C277.141794,453.241595 273.889934,456.493455 269.120468,457.794219 L263.917439,455.192705 C255.67927,456.05988 250.909875,451.724067 249.609112,442.185134 L249.077053,436.80267 C247.981486,426.33678 246.966486,420.543234 246.03203,419.421886 C245.110656,418.316237 242.671739,387.770142 243.105327,385.602202 L243.112703,373.174925 C243.152045,367.52273 243.348756,359.772334 243.702837,349.92362 L244.473945,329.742184 C244.862291,318.716202 245.056462,310.020366 245.056462,303.654508 L244.406084,280.891259 C235.300739,277.856144 230.748135,273.737122 230.748135,268.534067 C230.748135,262.03025 234.867157,256.610483 243.105327,252.274604 L243.105327,35.0481762 C243.105327,31.5794734 245.598419,27.2436599 250.58468,22.0406056 C255.57094,16.8375514 259.798358,14.2360633 263.267061,14.2360633 C270.204467,14.2360633 274.106699,14.8864353 274.973874,16.1871989 C277.575401,18.788726 279.960099,21.6070048 282.128038,24.6421198 L280.322021,35.2417202 C274.588635,69.6420143 271.721982,94.7252543 271.721982,110.492085 L272.37236,114.394357 C301.856334,38.5164823 345.864841,0.578114246 404.399201,0.578114246 Z M325.461531,277.646951 L317.389562,277.646951 C300.326465,277.760304 286.621614,279.058362 276.274631,281.541638 C275.931034,292.880369 275.72358,313.884944 275.652268,344.555804 L275.652268,344.555804 L275.63726,373.992958 C275.715305,383.943775 276.144552,393.016477 276.92501,401.211287 C297.737227,413.351747 325.269643,419.421886 359.523083,419.421886 C387.272705,419.421886 414.37154,411.18384 440.820399,394.707502 L440.820399,394.707502 L442.490961,393.691782 C471.728394,375.676487 486.346896,353.902399 486.346896,328.368892 C486.346896,304.52156 463.367084,289.129422 417.406772,282.192017 L417.406772,282.192017 L416.24795,282.008089 C398.213531,279.216947 367.95166,277.763247 325.461531,277.646951 L325.461531,277.646951 Z" id="B"></path>
                    <path d="M242.547859,123.499656 C242.547859,58.461478 218.917676,25.9428768 171.6566,25.9428768 C139.571099,25.9428768 110.304358,46.9715722 83.8554986,89.0295939 C60.0081667,126.751737 48.0846796,162.522198 48.0846796,196.342051 L48.0846796,253.575361 L96.2126906,253.575361 C146.075294,253.575361 182.279336,244.686944 204.825905,226.909842 C229.974,206.531213 242.547859,172.061495 242.547859,123.499656 Z M174.258114,0.578114246 C208.077966,0.578114246 233.876057,13.5855547 251.653159,39.6008259 C267.695909,62.5809821 275.717164,91.4141418 275.717164,126.10117 C275.717164,151.219363 270.058438,175.932997 258.740821,200.242764 L257.506565,202.845836 C243.631754,232.32981 225.854919,250.540227 204.175526,257.477632 C260.975535,264.415038 289.375113,289.345966 289.375113,332.271163 C289.375113,345.040325 286.635963,356.439731 281.157585,366.469685 L280.269814,368.041982 C251.219428,420.072524 201.357573,446.087405 130.682753,446.087405 C108.569772,446.087405 80.6037751,441.751592 46.7839226,433.079835 C46.7839226,433.947011 16.8253991,420.543234 15.8909425,419.421886 C14.9695683,418.316237 12.5306513,387.770142 12.9642391,385.602202 L12.9716158,373.174925 C13.0109578,367.52273 13.2076681,359.772334 13.5617501,349.92362 L14.3328573,329.742184 C14.7212037,318.716202 14.9153747,310.020366 14.9153747,303.654508 L14.2649962,280.891259 C5.15965129,277.856144 0.607047126,273.737122 0.607047126,268.534067 C0.607047126,262.03025 4.72606994,256.610483 12.9642391,252.274604 L42.2312729,114.394357 C71.7152469,38.5164823 115.723754,0.578114246 174.258114,0.578114246 Z M95.3204436,277.646951 L87.2484748,277.646951 C70.1853775,277.760304 56.4805269,279.058362 46.133544,281.541638 C45.7899461,292.880369 45.5824928,313.884944 45.5111809,344.555804 L45.5111809,344.555804 L45.496173,373.992958 C45.5742177,383.943775 46.0034644,393.016477 46.7839226,401.211287 C67.5961395,413.351747 95.1285551,419.421886 129.381996,419.421886 C157.131618,419.421886 184.230452,411.18384 210.679311,394.707502 L210.679311,394.707502 L212.349873,393.691782 C241.587307,375.676487 256.205808,353.902399 256.205808,328.368892 C256.205808,304.52156 233.225997,289.129422 187.265684,282.192017 L187.265684,282.192017 L186.106862,282.008089 C168.072443,279.216947 137.810573,277.763247 95.3204436,277.646951 L95.3204436,277.646951 Z" id="B" transform="translate(144.991080, 223.332760) scale(-1, 1) translate(-144.991080, -223.332760) "></path>
                </g>
            </g>
        </g>
    </g>
</svg>