<?xml version="1.0" encoding="UTF-8"?>
<svg width="2782px" height="749px" viewBox="0 0 2782 749" version="1.1" xmlns="http://www.w3.org/2000/svg" xmlns:xlink="http://www.w3.org/1999/xlink">
    <!-- Generator: Sketch 59.1 (86144) - https://sketch.com -->
    <title>MASTER</title>
    <desc>Created with Sketch.</desc>
    <g id="Page-1" stroke="none" stroke-width="1" fill="none" fill-rule="evenodd">
        <g id="MASTER" transform="translate(-84.000000, -84.000000)">
            <g id="Text" transform="translate(745.354439, 125.946318)" fill="#1E3752" fill-rule="nonzero">
                <path d="M175.383138,433.585685 L175.383138,119.962836 L275.401032,119.962836 C294.660592,119.962836 311.257122,121.859582 325.191122,125.653131 C339.125121,129.446681 350.578551,134.845113 359.551755,141.848589 C368.524959,148.852065 375.163571,157.4239 379.467791,167.56435 C383.772011,177.704799 385.924088,189.121753 385.924088,201.815554 C385.924088,209.548559 384.720384,216.989641 382.312939,224.139023 C379.905494,231.288405 376.257905,237.927017 371.370062,244.055058 C366.482219,250.1831 360.354269,255.654484 352.986029,260.469374 C345.617788,265.284264 336.973002,269.22366 327.051411,272.287681 C349.958614,276.810759 367.248187,285.05431 378.920647,297.018582 C390.593107,308.982854 396.42925,324.740439 396.42925,344.29181 C396.42925,357.569234 393.985365,369.67923 389.097522,380.622161 C384.20968,391.565093 377.060405,400.975873 367.649484,408.854783 C358.238563,416.733694 346.712181,422.825168 333.069993,427.129387 C319.427805,431.433607 303.8526,433.585685 286.343909,433.585685 L175.383138,433.585685 Z M217.8415,290.671714 L217.8415,399.881624 L285.687337,399.881624 C297.797514,399.881624 308.193143,398.49554 316.874535,395.723331 C325.555928,392.951122 332.705202,389.048201 338.322574,384.014453 C343.939945,378.980704 348.061721,372.998658 350.688025,366.068135 C353.314328,359.137612 354.62746,351.51415 354.62746,343.197522 C354.62746,327.001984 348.900745,314.198946 337.447144,304.788025 C325.993542,295.377104 308.667494,290.671714 285.468479,290.671714 L217.8415,290.671714 Z M217.8415,260.469374 L273.86903,260.469374 C285.833301,260.469374 296.192455,259.156242 304.9468,256.529938 C313.701145,253.903634 320.959847,250.256045 326.723125,245.587061 C332.486402,240.918077 336.754081,235.264314 339.52629,228.625602 C342.2985,221.98689 343.684584,214.728188 343.684584,206.849277 C343.684584,188.465152 338.140248,174.969073 327.051411,166.360633 C315.962574,157.752194 298.745953,153.448039 275.401032,153.448039 L217.8415,153.448039 L217.8415,260.469374 Z M510.197632,208.38128 C523.475056,208.38128 535.730956,210.606309 546.965699,215.056435 C558.200442,219.50656 567.903029,225.926317 576.073751,234.315898 C584.244473,242.705479 590.627754,253.064632 595.223785,265.393668 C599.819817,277.722704 602.117798,291.765923 602.117798,307.523744 C602.117798,313.651786 601.461232,317.737085 600.14808,319.779766 C598.834928,321.822447 596.354567,322.843772 592.706924,322.843772 L445.196944,322.843772 C445.488756,336.850724 447.385502,349.033672 450.88724,359.39298 C454.388978,369.752289 459.203796,378.397075 465.331838,385.327598 C471.459879,392.258121 478.755057,397.437698 487.217591,400.866483 C495.680125,404.295268 505.163857,406.009635 515.669071,406.009635 C525.444756,406.009635 533.870687,404.878883 540.947116,402.617343 C548.023545,400.355804 554.115019,397.91192 559.221721,395.285616 C563.761011,392.951124 567.63737,390.760765 570.850888,388.714489 L572.024886,387.953889 C575.453672,385.692349 578.408219,384.561597 580.888617,384.561597 C583.831049,384.561597 586.160444,385.603693 587.876858,387.687913 L599.27265,402.507915 C594.45776,408.344145 588.694569,413.414294 581.982904,417.718513 C575.27124,422.022733 568.085489,425.560895 560.425437,428.333104 C552.765385,431.105313 544.850117,433.184439 536.679394,434.570544 C528.508672,435.956648 520.411024,436.64969 512.386208,436.64969 C497.066104,436.64969 482.949934,434.059902 470.037275,428.880248 C457.124615,423.700594 445.962993,416.113608 436.552072,406.119064 C427.14115,396.12452 419.809496,383.759193 414.556889,369.022712 C409.304282,354.286231 406.678018,337.361417 406.678018,318.247763 C406.678018,302.781753 409.048951,288.3373 413.790888,274.913971 C418.532825,261.490642 425.353816,249.854832 434.254067,240.006194 C443.154318,230.157556 454.024134,222.424667 466.86384,216.807295 C479.703547,211.189924 494.148,208.38128 510.197632,208.38128 Z M511.073063,237.051617 C492.25122,237.051617 477.442009,242.486525 466.644983,253.356504 C455.847957,264.226482 449.136393,279.291026 446.510089,298.550585 L567.100592,298.550585 C567.100592,289.504428 565.860412,281.224401 563.380014,273.710255 C560.899616,266.196108 557.252027,259.7034 552.437137,254.231934 C547.622247,248.760468 541.749629,244.529265 534.819105,241.538197 C527.888582,238.547129 519.973314,237.051617 511.073063,237.051617 Z M681.087832,499.024088 C679.77468,501.942203 678.133265,504.27666 676.163538,506.027529 C674.19381,507.778398 671.166311,508.65382 667.08095,508.65382 L638.191755,508.65382 L678.680399,420.67309 L587.197949,211.883001 L620.90201,211.883001 C624.257842,211.883001 626.884106,212.721946 628.780881,214.399862 C630.677656,216.077779 632.06374,217.938049 632.939174,219.98073 L692.249566,359.611838 C693.562718,362.821764 694.693471,366.031643 695.641858,369.241569 C696.590246,372.451496 697.429191,375.734326 698.15872,379.090158 L700.201389,372.475801 C700.541834,371.389621 700.882279,370.311545 701.222725,369.241569 C702.244066,366.031643 703.411294,362.748812 704.724446,359.39298 L762.283978,219.98073 C763.159412,217.646237 764.654924,215.713015 766.770557,214.181005 C768.886191,212.648994 771.184172,211.883001 773.66457,211.883001 L804.74234,211.883001 L681.087832,499.024088 Z M894.217536,208.38128 C910.413075,208.38128 925.039907,211.080496 938.098472,216.479009 C951.157037,221.877522 962.245708,229.537459 971.364818,239.45905 C980.483927,249.380641 987.487298,261.38121 992.375141,275.461115 C997.262984,289.54102 999.706869,305.262129 999.706869,322.624914 C999.706869,340.133604 997.262984,355.891189 992.375141,369.898142 C987.487298,383.905094 980.483927,395.869186 971.364818,405.790778 C962.245708,415.712369 951.157037,423.33583 938.098472,428.66139 C925.039907,433.98695 910.413075,436.64969 894.217536,436.64969 C878.021997,436.64969 863.395165,433.98695 850.3366,428.66139 C837.278035,423.33583 826.152888,415.712369 816.960826,405.790778 C807.768763,395.869186 800.69244,383.905094 795.731645,369.898142 C790.770849,355.891189 788.290489,340.133604 788.290489,322.624914 C788.290489,305.262129 790.770849,289.54102 795.731645,275.461115 C800.69244,261.38121 807.768763,249.380641 816.960826,239.45905 C826.152888,229.537459 837.278035,221.877522 850.3366,216.479009 C863.395165,211.080496 878.021997,208.38128 894.217536,208.38128 Z M894.217536,406.228493 C916.103399,406.228493 932.444598,398.896839 943.241624,384.23331 C954.03865,369.569782 959.437082,349.106807 959.437082,322.843772 C959.437082,296.43483 954.03865,275.862427 943.241624,261.125946 C932.444598,246.389465 916.103399,239.021335 894.217536,239.021335 C883.128699,239.021335 873.499064,240.918082 865.328341,244.711631 C857.157619,248.505181 850.336627,253.976564 844.865162,261.125946 C839.393696,268.275328 835.308396,277.066018 832.60914,287.498279 C829.909883,297.930541 828.560275,309.712254 828.560275,322.843772 C828.560275,335.975289 829.909883,347.720526 832.60914,358.079835 C835.308396,368.439143 839.393696,377.156881 844.865162,384.23331 C850.336627,391.309739 857.157619,396.744647 865.328341,400.538197 C873.499064,404.331746 883.128699,406.228493 894.217536,406.228493 Z M1017.83451,433.585685 L1017.83451,211.883001 L1041.03341,211.883001 C1046.57783,211.883001 1050.07951,214.582217 1051.53857,219.98073 L1054.60257,244.055058 C1064.23235,233.403938 1074.99274,224.795628 1086.88406,218.229869 C1098.77538,211.66411 1112.52679,208.38128 1128.13871,208.38128 C1140.24888,208.38128 1150.93632,210.387454 1160.20134,214.399862 C1169.46635,218.412271 1177.19924,224.10251 1183.40023,231.47075 C1189.60123,238.838991 1194.30662,247.702632 1197.51655,258.061941 C1200.72647,268.421249 1202.33141,279.874679 1202.33141,292.422574 L1202.33141,433.585685 L1163.37477,433.585685 L1163.37477,292.422574 C1163.37477,275.643412 1159.5448,262.621519 1151.88475,253.356504 C1144.2247,244.091488 1132.51594,239.45905 1116.75811,239.45905 C1105.23156,239.45905 1094.47117,242.231218 1084.47663,247.775637 C1074.48208,253.320055 1065.25368,260.834089 1056.79115,270.317963 L1056.79115,433.585685 L1017.83451,433.585685 Z M1387.22849,433.585685 C1381.68407,433.585685 1378.18239,430.886469 1376.72333,425.487956 L1373.22161,398.568479 C1363.73774,410.095034 1352.9044,419.323434 1340.72127,426.253957 C1328.53814,433.184481 1314.56787,436.64969 1298.81005,436.64969 C1286.11625,436.64969 1274.58987,434.205806 1264.23056,429.317963 C1253.87125,424.43012 1245.04408,417.24437 1237.7488,407.760496 C1230.45351,398.276622 1224.83622,386.458433 1220.89677,372.305575 C1216.95731,358.152717 1214.98761,341.884469 1214.98761,323.500344 C1214.98761,307.1589 1217.17617,291.948453 1221.55334,277.868548 C1225.93051,263.788643 1232.24084,251.569219 1240.48451,241.209911 C1248.72819,230.850602 1258.75906,222.716478 1270.57743,216.807295 C1282.39579,210.898112 1295.81892,207.943565 1310.84721,207.943565 C1324.41645,207.943565 1336.01578,210.241546 1345.64556,214.837577 C1355.27534,219.433609 1363.88365,225.889841 1371.47075,234.206469 L1371.47075,111.208534 L1410.42739,111.208534 L1410.42739,433.585685 L1387.22849,433.585685 Z M1311.72264,405.134205 C1324.41644,405.134205 1335.54159,402.216134 1345.09842,396.379904 C1354.65524,390.543674 1363.44593,382.300122 1371.47075,371.649002 L1371.47075,264.408809 C1364.32137,254.77903 1356.47905,248.03099 1347.94357,244.164487 C1339.40808,240.297985 1329.96082,238.364763 1319.60151,238.364763 C1298.8829,238.364763 1282.97941,245.732893 1271.89057,260.469374 C1260.80173,275.205855 1255.2574,296.215968 1255.2574,323.500344 C1255.2574,337.945014 1256.49758,350.310341 1258.97798,360.596696 C1261.45837,370.883052 1265.10596,379.345459 1269.92085,385.984171 C1274.73574,392.622882 1280.64484,397.474176 1287.64831,400.538197 C1294.65179,403.602218 1302.67649,405.134205 1311.72264,405.134205 Z M1459.85166,433.585685 L1459.85166,123.902271 L1548.92668,123.902271 C1566.58127,123.902271 1581.86467,125.653114 1594.77733,129.154852 C1607.68999,132.65659 1618.37742,137.799691 1626.83996,144.584308 C1635.30249,151.368926 1641.61282,159.648953 1645.77114,169.424639 C1649.92945,179.200324 1652.00858,190.288995 1652.00858,202.690984 C1652.00858,210.861706 1650.58602,218.740499 1647.74085,226.327598 C1644.89569,233.914697 1640.77392,240.918068 1635.3754,247.337922 C1629.97689,253.757775 1623.37475,259.338586 1615.5688,264.080523 C1607.76284,268.82246 1598.82624,272.433573 1588.75875,274.913971 C1613.12501,278.561615 1631.87362,286.659263 1645.00513,299.207158 C1658.13665,311.755052 1664.70231,328.315107 1664.70231,348.887818 C1664.70231,362.019336 1662.36786,373.837525 1657.69887,384.342739 C1653.02989,394.847953 1646.24537,403.748071 1637.34512,411.043359 C1628.44487,418.338646 1617.5021,423.919458 1604.51649,427.78596 C1591.53088,431.652463 1576.79462,433.585685 1560.30727,433.585685 L1459.85166,433.585685 Z M1482.17513,285.200275 L1482.17513,415.639367 L1559.86955,415.639367 C1587.15393,415.639367 1607.72633,409.766748 1621.58738,398.021335 C1635.44842,386.275922 1642.37884,369.752343 1642.37884,348.450103 C1642.37884,338.674418 1640.51857,329.883728 1636.79798,322.07777 C1633.07738,314.271812 1627.71542,307.6332 1620.71195,302.161734 C1613.70847,296.690269 1605.10016,292.495541 1594.88676,289.577426 C1584.67336,286.659311 1573.07402,285.200275 1560.08841,285.200275 L1482.17513,285.200275 Z M1482.17513,268.78596 L1549.36439,268.78596 C1563.66315,268.78596 1575.88258,266.962166 1586.02303,263.314522 C1596.16348,259.666878 1604.47998,254.85206 1610.97279,248.869924 C1617.46559,242.887788 1622.24394,236.103273 1625.30796,228.516173 C1628.37198,220.929074 1629.90396,213.123234 1629.90396,205.098417 C1629.90396,184.233894 1623.30183,168.439833 1610.09736,157.71576 C1596.89289,146.991688 1576.50286,141.629732 1548.92668,141.629732 L1482.17513,141.629732 L1482.17513,268.78596 Z M1721.45211,115.14797 L1721.45211,433.585685 L1700.66065,433.585685 L1700.66065,115.14797 L1721.45211,115.14797 Z M1845.17232,212.320716 C1857.4284,212.320716 1868.7724,214.436317 1879.20467,218.667584 C1889.63693,222.898851 1898.68295,229.063277 1906.343,237.161046 C1914.00305,245.258815 1919.9851,255.216734 1924.28932,267.0351 C1928.59354,278.853466 1930.74562,292.422497 1930.74562,307.742602 C1930.74562,310.952528 1930.27143,313.141082 1929.32304,314.308328 C1928.37465,315.475574 1926.87914,316.059188 1924.83646,316.059188 L1767.47789,316.059188 L1767.47789,320.217481 C1767.47789,336.558925 1769.37464,350.930427 1773.16819,363.332416 C1776.96174,375.734405 1782.36017,386.130034 1789.36365,394.519615 C1796.36712,402.909195 1804.82953,409.219525 1814.75112,413.450791 C1824.67271,417.682058 1835.76138,419.79766 1848.01747,419.79766 C1858.9604,419.79766 1868.44413,418.593956 1876.46895,416.186511 C1884.49376,413.779066 1891.2418,411.07985 1896.71327,408.088782 C1901.63759,405.396821 1905.64593,402.94126 1908.73839,400.72204 L1909.73529,399.991053 C1912.94522,397.583608 1915.27968,396.379904 1916.73873,396.379904 C1918.63551,396.379904 1920.09454,397.109421 1921.11588,398.568479 L1926.80618,405.57192 C1923.30444,409.949093 1918.672,414.034393 1912.90873,417.827942 C1907.14545,421.621492 1900.72569,424.867846 1893.64926,427.567103 C1886.57283,430.266359 1878.98585,432.418437 1870.88808,434.0234 C1862.79031,435.628363 1854.65619,436.430833 1846.48546,436.430833 C1831.60308,436.430833 1818.03405,433.841044 1805.77796,428.66139 C1793.52188,423.481736 1783.01682,415.931226 1774.26248,406.009635 C1765.50813,396.088044 1758.76009,383.941572 1754.01816,369.569855 C1749.27622,355.198139 1746.90529,338.747512 1746.90529,320.217481 C1746.90529,304.605565 1749.13031,290.197588 1753.58044,276.993118 C1758.03057,263.788647 1764.45032,252.408169 1772.8399,242.851342 C1781.22948,233.294515 1791.51569,225.816957 1803.69882,220.418445 C1815.88195,215.019932 1829.70631,212.320716 1845.17232,212.320716 Z M1845.39118,227.859601 C1834.15643,227.859601 1824.08909,229.610444 1815.18884,233.112182 C1806.28859,236.61392 1798.59217,241.647593 1792.09937,248.213352 C1785.60656,254.779111 1780.35403,262.657903 1776.34162,271.849966 C1772.32922,281.042028 1769.66648,291.328229 1768.35332,302.708878 L1911.92387,302.708878 C1911.92387,291.036418 1910.31893,280.567837 1907.109,271.302822 C1903.89908,262.037806 1899.37606,254.19549 1893.53983,247.775637 C1887.7036,241.355783 1880.70023,236.431538 1872.52951,233.002753 C1864.35879,229.573968 1855.31277,227.859601 1845.39118,227.859601 Z M1966.92281,215.822436 L1966.92281,355.015829 C1966.92281,375.442635 1971.59172,391.455551 1980.92969,403.055058 C1990.26766,414.654566 2004.49326,420.454233 2023.60691,420.454233 C2037.75977,420.454233 2050.96404,416.843119 2063.22012,409.620785 C2075.47621,402.39845 2086.49193,392.36758 2096.26761,379.527873 L2096.26761,215.822436 L2117.27794,215.822436 L2117.27794,433.585685 L2105.67849,433.585685 C2101.59312,433.585685 2099.47752,431.688938 2099.33162,427.895389 L2097.3619,395.504474 C2087.2944,408.052368 2075.65859,418.119714 2062.45412,425.706813 C2049.24965,433.293913 2034.54987,437.087405 2018.35433,437.087405 C2006.24415,437.087405 1995.66614,435.190659 1986.61999,431.397109 C1977.57383,427.60356 1970.0598,422.132176 1964.07766,414.982794 C1958.09552,407.833412 1953.57251,399.225102 1950.50849,389.157605 C1947.44447,379.090108 1945.91248,367.70963 1945.91248,355.015829 L1945.91248,215.822436 L1966.92281,215.822436 Z" id="BeyondBleu"></path>
                <path d="M781.093819,534.136683 L781.093819,557.467309 L768.763881,557.467309 L768.763881,491.188162 L790.352732,491.188162 C794.783587,491.188162 798.61851,491.707634 801.857618,492.746593 C805.096726,493.785552 807.770477,495.237018 809.878953,497.101032 C811.987429,498.965047 813.545844,501.19572 814.554246,503.793118 C815.562647,506.390515 816.06684,509.232331 816.06684,512.318651 C816.06684,515.527201 815.53209,518.468328 814.462573,521.14212 C813.393057,523.815912 811.788806,526.115338 809.649772,528.040468 C807.510739,529.965598 804.836987,531.462899 801.628437,532.532416 C798.419887,533.601932 794.661356,534.136683 790.352732,534.136683 L781.093819,534.136683 Z M781.093819,524.511081 L790.352732,524.511081 C792.613996,524.511081 794.584932,524.228427 796.265602,523.663111 C797.946271,523.097795 799.336622,522.28803 800.436696,521.233792 C801.53677,520.179554 802.361814,518.896153 802.911851,517.383551 C803.461888,515.870949 803.736902,514.182666 803.736902,512.318651 C803.736902,510.546309 803.461888,508.942058 802.911851,507.50585 C802.361814,506.069642 801.53677,504.847355 800.436696,503.838954 C799.336622,502.830552 797.946271,502.058984 796.265602,501.524226 C794.584932,500.989467 792.613996,500.722092 790.352732,500.722092 L781.093819,500.722092 L781.093819,524.511081 Z M857.049554,503.243083 C856.71342,503.915351 856.323817,504.388987 855.880731,504.664006 C855.437646,504.939024 854.910535,505.076531 854.299382,505.076531 C853.68823,505.076531 853.000694,504.839713 852.236753,504.36607 L850.987717,503.615503 C850.536996,503.351945 850.051897,503.075019 849.532417,502.784721 C848.493458,502.204126 847.278811,501.677015 845.888439,501.203372 C844.498068,500.729729 842.85562,500.492911 840.961048,500.492911 C839.249821,500.492911 837.760159,500.699172 836.492018,501.1117 C835.223877,501.524228 834.154376,502.097175 833.283484,502.830557 C832.412592,503.56394 831.763252,504.442459 831.335445,505.466139 C830.907639,506.489819 830.693739,507.612795 830.693739,508.8351 C830.693739,510.393538 831.129178,511.692218 832.00007,512.731177 C832.870963,513.770136 834.024495,514.656294 835.460704,515.389677 C836.896912,516.123059 838.53172,516.780038 840.365177,517.360633 C842.198634,517.941228 844.07026,518.56001 845.980112,519.216999 C847.889963,519.873988 849.761589,520.637917 851.595046,521.508809 C853.428503,522.379702 855.063312,523.479759 856.49952,524.809016 C857.935728,526.138272 859.089261,527.765441 859.960153,529.690571 C860.831045,531.615701 861.266485,533.953324 861.266485,536.70351 C861.266485,539.698157 860.754652,542.501776 859.730972,545.114453 C858.707292,547.727129 857.209991,550.003638 855.239024,551.944047 C853.268058,553.884456 850.861681,555.412314 848.019823,556.527667 C845.177964,557.64302 841.923626,558.200688 838.256712,558.200688 C836.148236,558.200688 834.070349,557.994427 832.022988,557.5819 C829.975628,557.169372 828.01233,556.581146 826.133037,555.817206 C824.253743,555.053265 822.496706,554.13655 820.861874,553.067034 C819.227041,551.997517 817.767936,550.805788 816.484516,549.49181 L820.05974,543.57894 C820.395874,543.151133 820.800756,542.792087 821.274399,542.501789 C821.748042,542.211492 822.275153,542.066345 822.855748,542.066345 C823.619689,542.066345 824.444732,542.379556 825.330903,543.005988 C826.217074,543.632419 827.263657,544.327594 828.470683,545.091535 C829.677709,545.855475 831.098617,546.550651 832.73345,547.177082 C834.368282,547.803513 836.33158,548.116724 838.623401,548.116724 C842.137528,548.116724 844.857115,547.284041 846.782245,545.618651 C848.707375,543.953261 849.669926,541.562163 849.669926,538.445286 C849.669926,536.703501 849.234486,535.282593 848.363594,534.182519 C847.492702,533.082445 846.339169,532.15809 844.902961,531.409429 C843.466753,530.660767 841.831945,530.026706 839.998487,529.507226 C838.16503,528.987747 836.301043,528.422439 834.406471,527.811287 C832.511898,527.200135 830.647912,526.466763 828.814454,525.611149 C826.980997,524.755536 825.346189,523.6402 823.909981,522.265107 C822.473773,520.890014 821.32024,519.171173 820.449348,517.108534 C819.578456,515.045895 819.143016,512.502011 819.143016,509.476807 C819.143016,507.062755 819.624291,504.709853 820.586856,502.418032 C821.549421,500.12621 822.955051,498.094159 824.803787,496.321817 C826.652523,494.549475 828.921392,493.128567 831.610463,492.05905 C834.299533,490.989534 837.370528,490.454783 840.823539,490.454783 C844.734914,490.454783 848.34066,491.065926 851.640882,492.288231 C854.941105,493.510536 857.752364,495.221737 860.074743,497.421886 L857.049554,503.243083 Z M896.061311,531.707364 L896.061311,557.467309 L883.731373,557.467309 L883.731373,531.707364 L859.575695,491.188162 L870.438875,491.188162 C871.508392,491.188162 872.356353,491.447898 872.982784,491.967378 C873.609215,492.486857 874.136326,493.143836 874.564133,493.938334 L886.710726,516.07722 C887.413552,517.391197 888.024695,518.636402 888.544174,519.81287 C889.063654,520.989338 889.53729,522.142871 889.965097,523.273503 C890.362346,522.112314 890.813064,520.943502 891.317265,519.767034 C891.821465,518.590565 892.424969,517.36064 893.127794,516.07722 L905.182715,493.938334 C905.518849,493.266067 906.023042,492.639645 906.69531,492.05905 C907.367578,491.478455 908.223178,491.188162 909.262137,491.188162 L920.171153,491.188162 L896.061311,531.707364 Z M964.362401,541.837164 C965.034669,541.837164 965.615255,542.0969 966.104177,542.61638 L970.962814,547.887543 C968.273743,551.218324 964.965931,553.769847 961.039276,555.542189 C957.112622,557.314531 952.39918,558.200688 946.898808,558.200688 C941.979032,558.200688 937.555882,557.360366 933.629228,555.679697 C929.702574,553.999028 926.348925,551.661405 923.568182,548.666758 C920.787439,545.672112 918.656077,542.096924 917.174032,537.941087 C915.691987,533.785251 914.950976,529.247513 914.950976,524.327736 C914.950976,519.346844 915.77602,514.786187 917.426131,510.64563 C919.076243,506.505072 921.398587,502.937524 924.393234,499.942877 C927.38788,496.94823 930.970708,494.618246 935.141823,492.952856 C939.312938,491.287466 943.91943,490.454783 948.961437,490.454783 C953.881214,490.454783 958.182135,491.24163 961.864328,492.815348 C965.546521,494.389065 968.701548,496.474591 971.329503,499.071989 L967.204245,504.801514 C966.959784,505.168206 966.646574,505.489056 966.264603,505.764074 C965.882633,506.039093 965.355522,506.1766 964.683254,506.1766 C963.980429,506.1766 963.262336,505.901586 962.528953,505.351549 C961.79557,504.801511 960.863577,504.205647 959.732945,503.563937 C958.602313,502.922227 957.173765,502.326362 955.44726,501.776325 C953.720754,501.226288 951.528278,500.951273 948.869765,500.951273 C945.752888,500.951273 942.888154,501.493663 940.275477,502.578458 C937.662801,503.663254 935.416849,505.21403 933.537556,507.230833 C931.658262,509.247636 930.191518,511.699848 929.13728,514.587543 C928.083043,517.475238 927.555932,520.721937 927.555932,524.327736 C927.555932,528.055765 928.083043,531.371217 929.13728,534.274191 C930.191518,537.177165 931.620066,539.621738 933.422965,541.607983 C935.225865,543.594229 937.349588,545.114448 939.794197,546.168685 C942.238807,547.222923 944.866723,547.750034 947.678024,547.750034 C949.358693,547.750034 950.878912,547.658363 952.238726,547.475017 C953.59854,547.291671 954.851383,547.001378 955.997294,546.604129 C957.143205,546.20688 958.227984,545.695048 959.251665,545.068617 C960.275345,544.442185 961.29137,543.670617 962.299772,542.753889 C962.605348,542.47887 962.926198,542.257331 963.262332,542.089264 C963.598466,541.921197 963.965152,541.837164 964.362401,541.837164 Z M1032.06762,557.467309 L1019.64601,557.467309 L1019.64601,528.49883 L988.569065,528.49883 L988.569065,557.467309 L976.147455,557.467309 L976.147455,491.188162 L988.569065,491.188162 L988.569065,519.698279 L1019.64601,519.698279 L1019.64601,491.188162 L1032.06762,491.188162 L1032.06762,557.467309 Z M1104.90649,524.327736 C1104.90649,529.186397 1104.09673,533.685939 1102.47717,537.826497 C1100.85762,541.967054 1098.58111,545.549882 1095.64758,548.575086 C1092.71405,551.60029 1089.1847,553.960831 1085.05942,555.656779 C1080.93414,557.352727 1076.36584,558.200688 1071.35439,558.200688 C1066.34294,558.200688 1061.76701,557.352727 1057.62645,555.656779 C1053.48589,553.960831 1049.94126,551.60029 1046.99245,548.575086 C1044.04364,545.549882 1041.7595,541.967054 1040.13994,537.826497 C1038.52039,533.685939 1037.71062,529.186397 1037.71062,524.327736 C1037.71062,519.469074 1038.52039,514.969532 1040.13994,510.828975 C1041.7595,506.688417 1044.04364,503.10559 1046.99245,500.080385 C1049.94126,497.055181 1053.48589,494.69464 1057.62645,492.998692 C1061.76701,491.302744 1066.34294,490.454783 1071.35439,490.454783 C1076.36584,490.454783 1080.93414,491.310384 1085.05942,493.02161 C1089.1847,494.732837 1092.71405,497.093378 1095.64758,500.103304 C1098.58111,503.113229 1100.85762,506.688417 1102.47717,510.828975 C1104.09673,514.969532 1104.90649,519.469074 1104.90649,524.327736 Z M1092.2557,524.327736 C1092.2557,520.691379 1091.77443,517.429402 1090.81186,514.541707 C1089.8493,511.654012 1088.46658,509.201799 1086.66369,507.184997 C1084.86079,505.168194 1082.66831,503.625057 1080.08619,502.55554 C1077.50407,501.486024 1074.5935,500.951273 1071.35439,500.951273 C1068.11529,500.951273 1065.19708,501.486024 1062.59968,502.55554 C1060.00228,503.625057 1057.79453,505.168194 1055.97635,507.184997 C1054.15817,509.201799 1052.76018,511.654012 1051.78234,514.541707 C1050.80449,517.429402 1050.31558,520.691379 1050.31558,524.327736 C1050.31558,527.964093 1050.80449,531.22607 1051.78234,534.113765 C1052.76018,537.00146 1054.15817,539.446033 1055.97635,541.447557 C1057.79453,543.449081 1060.00228,544.984578 1062.59968,546.054095 C1065.19708,547.123612 1068.11529,547.658362 1071.35439,547.658362 C1074.5935,547.658362 1077.50407,547.123612 1080.08619,546.054095 C1082.66831,544.984578 1084.86079,543.449081 1086.66369,541.447557 C1088.46658,539.446033 1089.8493,537.00146 1090.81186,534.113765 C1091.77443,531.22607 1092.2557,527.964093 1092.2557,524.327736 Z M1153.63553,491.188162 L1153.63553,501.317963 L1133.69678,501.317963 L1133.69678,557.467309 L1121.36684,557.467309 L1121.36684,501.317963 L1101.33642,501.317963 L1101.33642,491.188162 L1153.63553,491.188162 Z M1213.27357,557.467309 L1200.85196,557.467309 L1200.85196,528.49883 L1169.77502,528.49883 L1169.77502,557.467309 L1157.35341,557.467309 L1157.35341,491.188162 L1169.77502,491.188162 L1169.77502,519.698279 L1200.85196,519.698279 L1200.85196,491.188162 L1213.27357,491.188162 L1213.27357,557.467309 Z M1264.34025,491.188162 L1264.34025,500.997109 L1234.95925,500.997109 L1234.95925,519.377426 L1258.10653,519.377426 L1258.10653,528.86552 L1234.95925,528.86552 L1234.95925,547.612526 L1264.34025,547.612526 L1264.34025,557.467309 L1222.53764,557.467309 L1222.53764,491.188162 L1264.34025,491.188162 Z M1283.64244,531.569855 L1283.64244,557.467309 L1271.3125,557.467309 L1271.3125,491.188162 L1291.52627,491.188162 C1296.0488,491.188162 1299.92192,491.654159 1303.14574,492.586167 C1306.36957,493.518174 1309.01277,494.824493 1311.07541,496.505162 C1313.13805,498.185831 1314.65063,500.194964 1315.61319,502.532622 C1316.57576,504.87028 1317.05703,507.444721 1317.05703,510.256022 C1317.05703,512.486728 1316.72854,514.595172 1316.07155,516.581418 C1315.41456,518.567663 1314.46729,520.370536 1313.22971,521.990089 C1311.99213,523.609643 1310.46427,525.030551 1308.64609,526.252856 C1306.82791,527.475161 1304.75766,528.45299 1302.43528,529.186373 C1303.99372,530.072544 1305.33824,531.340666 1306.46887,532.990778 L1323.06157,557.467309 L1311.96921,557.467309 C1310.8997,557.467309 1309.99062,557.253409 1309.24196,556.825602 C1308.4933,556.397796 1307.85924,555.786652 1307.33976,554.992154 L1293.40555,533.769993 C1292.88607,532.975495 1292.31313,532.410188 1291.68669,532.074054 C1291.06026,531.73792 1290.13591,531.569855 1288.9136,531.569855 L1283.64244,531.569855 Z M1283.64244,522.723469 L1291.34292,522.723469 C1293.6653,522.723469 1295.68971,522.433176 1297.41622,521.852581 C1299.14273,521.271986 1300.56363,520.469861 1301.67899,519.44618 C1302.79434,518.4225 1303.62702,517.207853 1304.17706,515.802202 C1304.7271,514.396552 1305.00211,512.853415 1305.00211,511.172746 C1305.00211,507.811408 1303.89441,505.229328 1301.67899,503.426428 C1299.46356,501.623528 1296.07935,500.722092 1291.52627,500.722092 L1283.64244,500.722092 L1283.64244,522.723469 Z M1385.0831,557.467309 L1375.54917,557.467309 C1374.47966,557.467309 1373.60114,557.199934 1372.91359,556.665175 C1372.22605,556.130417 1371.72949,555.465799 1371.42392,554.671301 L1366.47361,541.149621 L1339.01772,541.149621 L1334.06741,554.671301 C1333.82295,555.374126 1333.34168,556.015826 1332.62357,556.596421 C1331.90547,557.177016 1331.02695,557.467309 1329.98799,557.467309 L1320.40822,557.467309 L1346.44319,491.188162 L1359.04814,491.188162 L1385.0831,557.467309 Z M1342.18042,532.440743 L1363.31091,532.440743 L1354.66506,508.794994 C1354.46261,508.218223 1354.25062,507.597526 1354.02908,506.932897 C1353.58599,505.603641 1353.15055,504.159815 1352.72275,502.601376 C1352.29494,504.159815 1351.87478,505.61128 1351.46225,506.955816 C1351.04972,508.300351 1350.64484,509.476802 1350.24759,510.485203 L1342.18042,532.440743 Z M1400.53505,534.136683 L1400.53505,557.467309 L1388.20512,557.467309 L1388.20512,491.188162 L1409.79397,491.188162 C1414.22482,491.188162 1418.05975,491.707634 1421.29885,492.746593 C1424.53796,493.785552 1427.21171,495.237018 1429.32019,497.101032 C1431.42866,498.965047 1432.98708,501.19572 1433.99548,503.793118 C1435.00388,506.390515 1435.50808,509.232331 1435.50808,512.318651 C1435.50808,515.527201 1434.97333,518.468328 1433.90381,521.14212 C1432.83429,523.815912 1431.23004,526.115338 1429.09101,528.040468 C1426.95197,529.965598 1424.27822,531.462899 1421.06967,532.532416 C1417.86112,533.601932 1414.10259,534.136683 1409.79397,534.136683 L1400.53505,534.136683 Z M1400.53505,524.511081 L1409.79397,524.511081 C1412.05523,524.511081 1414.02617,524.228427 1415.70684,523.663111 C1417.38751,523.097795 1418.77786,522.28803 1419.87793,521.233792 C1420.97801,520.179554 1421.80305,518.896153 1422.35309,517.383551 C1422.90312,515.870949 1423.17814,514.182666 1423.17814,512.318651 C1423.17814,510.546309 1422.90312,508.942058 1422.35309,507.50585 C1421.80305,506.069642 1420.97801,504.847355 1419.87793,503.838954 C1418.77786,502.830552 1417.38751,502.058984 1415.70684,501.524226 C1414.02617,500.989467 1412.05523,500.722092 1409.79397,500.722092 L1400.53505,500.722092 L1400.53505,524.511081 Z M1470.44041,531.707364 L1470.44041,557.467309 L1458.11047,557.467309 L1458.11047,531.707364 L1433.95479,491.188162 L1444.81797,491.188162 C1445.88749,491.188162 1446.73545,491.447898 1447.36188,491.967378 C1447.98831,492.486857 1448.51543,493.143836 1448.94323,493.938334 L1461.08983,516.07722 C1461.79265,517.391197 1462.40379,518.636402 1462.92327,519.81287 C1463.44275,520.989338 1463.91639,522.142871 1464.3442,523.273503 C1464.74145,522.112314 1465.19216,520.943502 1465.69636,519.767034 C1466.20056,518.590565 1466.80407,517.36064 1467.50689,516.07722 L1479.56181,493.938334 C1479.89795,493.266067 1480.40214,492.639645 1481.07441,492.05905 C1481.74668,491.478455 1482.60228,491.188162 1483.64124,491.188162 L1494.55025,491.188162 L1470.44041,531.707364 Z M1533.97969,491.050654 C1536.39374,491.050654 1538.59385,491.440258 1540.5801,492.219477 C1542.56634,492.998696 1544.28518,494.03 1545.73667,495.313421 C1547.18816,496.596841 1548.33405,498.086502 1549.17439,499.78245 C1550.01472,501.478398 1550.496,503.243074 1550.61823,505.076531 L1545.53041,506.084928 C1545.37762,506.115485 1545.24011,506.130764 1545.11788,506.130764 C1544.72063,506.130764 1544.34631,506.023814 1543.9949,505.809911 C1543.64348,505.596007 1543.39139,505.214043 1543.2386,504.664006 C1543.02469,503.869507 1542.68093,503.044464 1542.20728,502.188851 C1541.73364,501.333237 1541.1225,500.55403 1540.37384,499.851204 C1539.62517,499.148379 1538.72374,498.567793 1537.6695,498.109429 C1536.61526,497.651064 1535.38534,497.421886 1533.97969,497.421886 C1532.4518,497.421886 1531.07673,497.666343 1529.85443,498.155265 C1528.63212,498.644187 1527.58554,499.324084 1526.71465,500.194976 C1525.84376,501.065868 1525.1715,502.089533 1524.69785,503.266001 C1524.22421,504.44247 1523.98739,505.718231 1523.98739,507.093324 C1523.98739,508.162841 1524.11726,509.186506 1524.377,510.16435 C1524.63674,511.142193 1525.02635,512.127662 1525.54582,513.120785 C1526.0653,514.113907 1526.73756,515.137572 1527.56262,516.19181 C1528.18141,516.982488 1528.89473,517.803238 1529.70259,518.654072 L1549.42649,538.720303 C1550.58767,536.672942 1551.51203,534.526302 1552.19958,532.280317 C1552.88712,530.034332 1553.35312,527.780741 1553.59758,525.519477 C1553.65869,524.938882 1553.84204,524.480525 1554.14761,524.144391 C1554.45319,523.808257 1554.88099,523.640193 1555.43103,523.640193 L1560.47301,523.640193 C1560.41189,527.154319 1559.84659,530.607278 1558.77707,533.999174 C1557.70755,537.39107 1556.16442,540.569015 1554.14761,543.533104 L1567.89847,557.467309 L1560.01465,557.467309 C1559.12848,557.467309 1558.41038,557.360359 1557.86035,557.146456 C1557.31031,556.932552 1556.69917,556.489473 1556.0269,555.817206 L1549.42649,549.170957 C1546.55407,551.9517 1543.24626,554.151816 1539.50295,555.77137 C1535.75964,557.390923 1531.64206,558.200688 1527.15009,558.200688 C1524.70548,558.200688 1522.30674,557.788167 1519.95381,556.963111 C1517.60087,556.138055 1515.50007,554.938686 1513.65133,553.364969 C1511.80259,551.791252 1510.31293,549.87379 1509.1823,547.612526 C1508.05167,545.351262 1507.48636,542.799739 1507.48636,539.95788 C1507.48636,537.818847 1507.84541,535.794435 1508.56351,533.884584 C1509.28162,531.974732 1510.27472,530.210056 1511.54287,528.590502 C1512.81101,526.970949 1514.31595,525.519483 1516.05773,524.236063 C1517.79952,522.952643 1519.70934,521.852585 1521.78726,520.935857 C1519.92324,518.58292 1518.54817,516.291133 1517.662,514.060427 C1516.77583,511.82972 1516.33275,509.522655 1516.33275,507.13916 C1516.33275,504.908454 1516.73763,502.815289 1517.54741,500.859601 C1518.35718,498.903913 1519.526,497.200351 1521.05388,495.748864 C1522.58176,494.297377 1524.43811,493.151484 1526.62298,492.311149 C1528.80785,491.470815 1531.26006,491.050654 1533.97969,491.050654 Z M1515.78271,539.316173 C1515.78271,541.302419 1516.1494,543.051816 1516.88278,544.564418 C1517.61617,546.077021 1518.57872,547.352782 1519.77046,548.391741 C1520.96221,549.4307 1522.322,550.217547 1523.84989,550.752306 C1525.37777,551.287064 1526.93618,551.554439 1528.52518,551.554439 C1531.94763,551.554439 1535.01863,550.928017 1537.73825,549.675155 C1540.45788,548.422292 1542.85662,546.756927 1544.93454,544.679009 L1525.54582,525.106951 C1522.30672,526.848735 1519.86978,528.934262 1518.23495,531.363593 C1516.60012,533.792923 1515.78271,536.443757 1515.78271,539.316173 Z M1629.87932,541.837164 C1630.55159,541.837164 1631.13217,542.0969 1631.62109,542.61638 L1636.47973,547.887543 C1633.79066,551.218324 1630.48285,553.769847 1626.55619,555.542189 C1622.62954,557.314531 1617.9161,558.200688 1612.41573,558.200688 C1607.49595,558.200688 1603.0728,557.360366 1599.14615,555.679697 C1595.21949,553.999028 1591.86584,551.661405 1589.0851,548.666758 C1586.30436,545.672112 1584.17299,542.096924 1582.69095,537.941087 C1581.2089,533.785251 1580.46789,529.247513 1580.46789,524.327736 C1580.46789,519.346844 1581.29294,514.786187 1582.94305,510.64563 C1584.59316,506.505072 1586.9155,502.937524 1589.91015,499.942877 C1592.9048,496.94823 1596.48763,494.618246 1600.65874,492.952856 C1604.82986,491.287466 1609.43635,490.454783 1614.47835,490.454783 C1619.39813,490.454783 1623.69905,491.24163 1627.38125,492.815348 C1631.06344,494.389065 1634.21847,496.474591 1636.84642,499.071989 L1632.72116,504.801514 C1632.4767,505.168206 1632.16349,505.489056 1631.78152,505.764074 C1631.39955,506.039093 1630.87244,506.1766 1630.20017,506.1766 C1629.49735,506.1766 1628.77925,505.901586 1628.04587,505.351549 C1627.31249,504.801511 1626.38049,504.205647 1625.24986,503.563937 C1624.11923,502.922227 1622.69068,502.326362 1620.96418,501.776325 C1619.23767,501.226288 1617.0452,500.951273 1614.38668,500.951273 C1611.26981,500.951273 1608.40507,501.493663 1605.79239,502.578458 C1603.17972,503.663254 1600.93377,505.21403 1599.05447,507.230833 C1597.17518,509.247636 1595.70844,511.699848 1594.6542,514.587543 C1593.59996,517.475238 1593.07285,520.721937 1593.07285,524.327736 C1593.07285,528.055765 1593.59996,531.371217 1594.6542,534.274191 C1595.70844,537.177165 1597.13698,539.621738 1598.93988,541.607983 C1600.74278,543.594229 1602.8665,545.114448 1605.31111,546.168685 C1607.75572,547.222923 1610.38364,547.750034 1613.19494,547.750034 C1614.87561,547.750034 1616.39583,547.658363 1617.75564,547.475017 C1619.11546,547.291671 1620.3683,547.001378 1621.51421,546.604129 C1622.66012,546.20688 1623.7449,545.695048 1624.76858,545.068617 C1625.79226,544.442185 1626.80829,543.670617 1627.81669,542.753889 C1628.12227,542.47887 1628.44312,542.257331 1628.77925,542.089264 C1629.11538,541.921197 1629.48207,541.837164 1629.87932,541.837164 Z M1705.23918,524.327736 C1705.23918,529.186397 1704.42942,533.685939 1702.80986,537.826497 C1701.19031,541.967054 1698.9138,545.549882 1695.98027,548.575086 C1693.04674,551.60029 1689.51739,553.960831 1685.39211,555.656779 C1681.26683,557.352727 1676.69853,558.200688 1671.68708,558.200688 C1666.67563,558.200688 1662.0997,557.352727 1657.95914,555.656779 C1653.81858,553.960831 1650.27395,551.60029 1647.32514,548.575086 C1644.37633,545.549882 1642.09218,541.967054 1640.47263,537.826497 C1638.85308,533.685939 1638.04331,529.186397 1638.04331,524.327736 C1638.04331,519.469074 1638.85308,514.969532 1640.47263,510.828975 C1642.09218,506.688417 1644.37633,503.10559 1647.32514,500.080385 C1650.27395,497.055181 1653.81858,494.69464 1657.95914,492.998692 C1662.0997,491.302744 1666.67563,490.454783 1671.68708,490.454783 C1676.69853,490.454783 1681.26683,491.310384 1685.39211,493.02161 C1689.51739,494.732837 1693.04674,497.093378 1695.98027,500.103304 C1698.9138,503.113229 1701.19031,506.688417 1702.80986,510.828975 C1704.42942,514.969532 1705.23918,519.469074 1705.23918,524.327736 Z M1692.58839,524.327736 C1692.58839,520.691379 1692.10712,517.429402 1691.14455,514.541707 C1690.18199,511.654012 1688.79927,509.201799 1686.99637,507.184997 C1685.19348,505.168194 1683.001,503.625057 1680.41888,502.55554 C1677.83676,501.486024 1674.92619,500.951273 1671.68708,500.951273 C1668.44798,500.951273 1665.52977,501.486024 1662.93237,502.55554 C1660.33497,503.625057 1658.12722,505.168194 1656.30904,507.184997 C1654.49086,509.201799 1653.09287,511.654012 1652.11503,514.541707 C1651.13718,517.429402 1650.64827,520.691379 1650.64827,524.327736 C1650.64827,527.964093 1651.13718,531.22607 1652.11503,534.113765 C1653.09287,537.00146 1654.49086,539.446033 1656.30904,541.447557 C1658.12722,543.449081 1660.33497,544.984578 1662.93237,546.054095 C1665.52977,547.123612 1668.44798,547.658362 1671.68708,547.658362 C1674.92619,547.658362 1677.83676,547.123612 1680.41888,546.054095 C1683.001,544.984578 1685.19348,543.449081 1686.99637,541.447557 C1688.79927,539.446033 1690.18199,537.00146 1691.14455,534.113765 C1692.10712,531.22607 1692.58839,527.964093 1692.58839,524.327736 Z M1737.51302,547.520853 C1739.89651,547.520853 1742.02787,547.12361 1743.90717,546.329112 C1745.78646,545.534614 1747.37543,544.419278 1748.67413,542.98307 C1749.97283,541.546861 1750.96594,539.805103 1751.65349,537.757743 C1752.34103,535.710382 1752.6848,533.418595 1752.6848,530.882312 L1752.6848,491.188162 L1765.01474,491.188162 L1765.01474,530.882312 C1765.01474,534.824245 1764.38068,538.468187 1763.11254,541.814246 C1761.8444,545.160306 1760.0186,548.047958 1757.63511,550.477288 C1755.25162,552.906619 1752.36396,554.801163 1748.97207,556.160977 C1745.58017,557.520791 1741.76053,558.200688 1737.51302,558.200688 C1733.26551,558.200688 1729.44586,557.520791 1726.05397,556.160977 C1722.66207,554.801163 1719.78206,552.906619 1717.41384,550.477288 C1715.04563,548.047958 1713.22748,545.160306 1711.95934,541.814246 C1710.6912,538.468187 1710.05713,534.824245 1710.05713,530.882312 L1710.05713,491.188162 L1722.38707,491.188162 L1722.38707,530.836476 C1722.38707,533.372759 1722.73084,535.664546 1723.41839,537.711906 C1724.10593,539.759267 1725.0914,541.508664 1726.37482,542.960151 C1727.65824,544.411638 1729.23957,545.534614 1731.11887,546.329112 C1732.99816,547.12361 1735.12952,547.520853 1737.51302,547.520853 Z M1779.91665,491.188162 C1780.46669,491.188162 1780.92505,491.21108 1781.29174,491.256917 C1781.65843,491.302753 1781.98692,491.394425 1782.27722,491.531934 C1782.56752,491.669443 1782.85017,491.868065 1783.12519,492.127805 C1783.40021,492.387544 1783.70578,492.731312 1784.04191,493.159119 L1818.83159,537.482725 C1818.70936,536.413209 1818.62533,535.366626 1818.57949,534.342946 L1818.51837,532.387269 C1818.51328,532.076602 1818.51074,531.773573 1818.51074,531.478183 L1818.51074,491.188162 L1829.37392,491.188162 L1829.37392,557.467309 L1823.00268,557.467309 C1822.02484,557.467309 1821.21507,557.314523 1820.57336,557.008947 C1819.93165,556.703371 1819.30523,556.153342 1818.69408,555.358844 L1784.04191,511.218582 C1784.13359,512.196426 1784.20234,513.166616 1784.24818,514.129181 L1784.30929,515.942257 C1784.31438,516.225762 1784.31693,516.49993 1784.31693,516.764763 L1784.31693,557.467309 L1773.45375,557.467309 L1773.45375,491.188162 L1779.91665,491.188162 Z M1874.16103,503.243083 C1873.8249,503.915351 1873.4353,504.388987 1872.99221,504.664006 C1872.54913,504.939024 1872.02201,505.076531 1871.41086,505.076531 C1870.79971,505.076531 1870.11217,504.839713 1869.34823,504.36607 L1868.0992,503.615503 C1867.64848,503.351945 1867.16338,503.075019 1866.6439,502.784721 C1865.60494,502.204126 1864.39029,501.677015 1862.99992,501.203372 C1861.60955,500.729729 1859.9671,500.492911 1858.07253,500.492911 C1856.3613,500.492911 1854.87164,500.699172 1853.6035,501.1117 C1852.33536,501.524228 1851.26586,502.097175 1850.39496,502.830557 C1849.52407,503.56394 1848.87473,504.442459 1848.44692,505.466139 C1848.01912,506.489819 1847.80522,507.612795 1847.80522,508.8351 C1847.80522,510.393538 1848.24066,511.692218 1849.11155,512.731177 C1849.98244,513.770136 1851.13597,514.656294 1852.57218,515.389677 C1854.00839,516.123059 1855.6432,516.780038 1857.47666,517.360633 C1859.31011,517.941228 1861.18174,518.56001 1863.09159,519.216999 C1865.00144,519.873988 1866.87307,520.637917 1868.70653,521.508809 C1870.53998,522.379702 1872.17479,523.479759 1873.611,524.809016 C1875.04721,526.138272 1876.20074,527.765441 1877.07163,529.690571 C1877.94252,531.615701 1878.37796,533.953324 1878.37796,536.70351 C1878.37796,539.698157 1877.86613,542.501776 1876.84245,545.114453 C1875.81877,547.727129 1874.32147,550.003638 1872.3505,551.944047 C1870.37954,553.884456 1867.97316,555.412314 1865.1313,556.527667 C1862.28944,557.64302 1859.03511,558.200688 1855.36819,558.200688 C1853.25972,558.200688 1851.18183,557.994427 1849.13447,557.5819 C1847.08711,557.169372 1845.12381,556.581146 1843.24452,555.817206 C1841.36522,555.053265 1839.60819,554.13655 1837.97335,553.067034 C1836.33852,551.997517 1834.87942,550.805788 1833.596,549.49181 L1837.17122,543.57894 C1837.50735,543.151133 1837.91224,542.792087 1838.38588,542.501789 C1838.85952,542.211492 1839.38663,542.066345 1839.96723,542.066345 C1840.73117,542.066345 1841.55621,542.379556 1842.44238,543.005988 C1843.32855,543.632419 1844.37514,544.327594 1845.58216,545.091535 C1846.78919,545.855475 1848.2101,546.550651 1849.84493,547.177082 C1851.47976,547.803513 1853.44306,548.116724 1855.73488,548.116724 C1859.24901,548.116724 1861.96859,547.284041 1863.89372,545.618651 C1865.81885,543.953261 1866.78141,541.562163 1866.78141,538.445286 C1866.78141,536.703501 1866.34597,535.282593 1865.47507,534.182519 C1864.60418,533.082445 1863.45065,532.15809 1862.01444,531.409429 C1860.57823,530.660767 1858.94342,530.026706 1857.10997,529.507226 C1855.27651,528.987747 1853.41252,528.422439 1851.51795,527.811287 C1849.62338,527.200135 1847.75939,526.466763 1845.92593,525.611149 C1844.09248,524.755536 1842.45767,523.6402 1841.02146,522.265107 C1839.58525,520.890014 1838.43172,519.171173 1837.56083,517.108534 C1836.68994,515.045895 1836.2545,512.502011 1836.2545,509.476807 C1836.2545,507.062755 1836.73577,504.709853 1837.69834,502.418032 C1838.6609,500.12621 1840.06653,498.094159 1841.91527,496.321817 C1843.764,494.549475 1846.03287,493.128567 1848.72194,492.05905 C1851.41101,490.989534 1854.48201,490.454783 1857.93502,490.454783 C1861.84639,490.454783 1865.45214,491.065926 1868.75236,492.288231 C1872.05258,493.510536 1874.86384,495.221737 1877.18622,497.421886 L1874.16103,503.243083 Z M1925.50273,491.188162 L1925.50273,500.997109 L1896.12172,500.997109 L1896.12172,519.377426 L1919.26901,519.377426 L1919.26901,528.86552 L1896.12172,528.86552 L1896.12172,547.612526 L1925.50273,547.612526 L1925.50273,557.467309 L1883.70011,557.467309 L1883.70011,491.188162 L1925.50273,491.188162 Z M1944.39239,547.291672 L1970.93155,547.291672 L1970.93155,557.467309 L1932.06246,557.467309 L1932.06246,491.188162 L1944.39239,491.188162 L1944.39239,547.291672 Z M1989.22535,557.467309 L1976.84957,557.467309 L1976.84957,491.188162 L1989.22535,491.188162 L1989.22535,557.467309 Z M2006.46491,491.188162 C2007.01495,491.188162 2007.4733,491.21108 2007.84,491.256917 C2008.20669,491.302753 2008.53518,491.394425 2008.82547,491.531934 C2009.11577,491.669443 2009.39843,491.868065 2009.67344,492.127805 C2009.94846,492.387544 2010.25403,492.731312 2010.59017,493.159119 L2045.37984,537.482725 C2045.25761,536.413209 2045.17358,535.366626 2045.12775,534.342946 L2045.06663,532.387269 L2045.06663,532.387269 L2045.05899,491.188162 L2055.92217,491.188162 L2055.92217,557.467309 L2049.55094,557.467309 C2048.5731,557.467309 2047.76333,557.314523 2047.12162,557.008947 C2046.47991,556.703371 2045.85349,556.153342 2045.24234,555.358844 L2010.59017,511.218582 C2010.68184,512.196426 2010.75059,513.166616 2010.79643,514.129181 C2010.84227,515.091746 2010.86519,515.970264 2010.86519,516.764763 L2010.86519,557.467309 L2000.00201,557.467309 L2000.00201,491.188162 L2006.46491,491.188162 Z M2095.62147,548.391741 C2098.40221,548.391741 2100.82387,548.139645 2102.88651,547.635444 C2104.94915,547.131243 2106.91245,546.436068 2108.77646,545.549897 L2108.77646,533.494976 L2100.48011,533.494976 C2099.68561,533.494976 2099.05919,533.273436 2098.60082,532.830351 C2098.14246,532.387266 2097.91328,531.844876 2097.91328,531.203166 L2097.91328,524.236063 L2119.96049,524.236063 L2119.96049,551.050241 C2118.27982,552.272546 2116.53043,553.334407 2114.71225,554.235857 C2112.89407,555.137307 2110.95369,555.878318 2108.89105,556.458913 C2106.82841,557.039507 2104.62066,557.474947 2102.26772,557.765244 C2099.91478,558.055542 2097.37854,558.200688 2094.65891,558.200688 C2089.83081,558.200688 2085.38474,557.360366 2081.32058,555.679697 C2077.25641,553.999028 2073.74234,551.661405 2070.77825,548.666758 C2067.81416,545.672112 2065.49946,542.096924 2063.83407,537.941087 C2062.16868,533.785251 2061.33599,529.247513 2061.33599,524.327736 C2061.33599,519.346844 2062.14576,514.778548 2063.76531,510.622712 C2065.38487,506.466875 2067.68429,502.891687 2070.66366,499.897041 C2073.64303,496.902394 2077.25641,494.58005 2081.50392,492.929938 C2085.75143,491.279827 2090.51835,490.454783 2095.80482,490.454783 C2101.21351,490.454783 2105.8964,491.256909 2109.85361,492.861184 C2113.81082,494.465459 2117.16447,496.550985 2119.91466,499.117825 L2116.33943,504.709842 C2115.63661,505.840474 2114.70462,506.405781 2113.54343,506.405781 C2112.81004,506.405781 2112.06139,506.161324 2111.29745,505.672402 C2110.31961,505.091807 2109.31886,504.511221 2108.29518,503.930626 C2107.2715,503.350032 2106.14089,502.845838 2104.9033,502.418032 C2103.66572,501.990225 2102.27537,501.638818 2100.73221,501.363799 C2099.18905,501.08878 2097.40909,500.951273 2095.39229,500.951273 C2092.12262,500.951273 2089.16622,501.501302 2086.52299,502.601376 C2083.87975,503.701451 2081.62616,505.275145 2079.76215,507.322505 C2077.89813,509.369866 2076.46194,511.829717 2075.45354,514.702134 C2074.44514,517.57455 2073.94095,520.783052 2073.94095,524.327736 C2073.94095,528.147438 2074.4757,531.546922 2075.54522,534.52629 C2076.61473,537.505658 2078.11203,540.018985 2080.03716,542.066345 C2081.96229,544.113706 2084.25408,545.679761 2086.91259,546.764556 C2089.57111,547.849352 2092.47404,548.391741 2095.62147,548.391741 Z" id="PSYCHOTHERAPY&amp;COUNSELING"></path>
            </g>
            <g id="Logo" transform="translate(458.717717, 458.567377) rotate(-15.000000) translate(-458.717717, -458.567377) translate(84.717717, 84.567377)">
                <circle id="Oval" fill="#1E3752" cx="373.709566" cy="373.709566" r="373.709566"></circle>
                <g id="Group" transform="translate(115.622849, 142.463868)" fill="#FFFFFF" fill-rule="nonzero">
                    <path d="M472.688947,123.499656 C472.688947,58.461478 449.058763,25.9428768 401.797687,25.9428768 C369.712186,25.9428768 340.445445,46.9715722 313.996586,89.0295939 C290.149254,126.751737 278.225767,162.522198 278.225767,196.342051 L278.225767,253.575361 L326.353778,253.575361 C376.216381,253.575361 412.420424,244.686944 434.966992,226.909842 C460.115088,206.531213 472.688947,172.061495 472.688947,123.499656 Z M404.399201,0.578114246 C438.219054,0.578114246 464.017144,13.5855547 481.794246,39.6008259 C497.836997,62.5809821 505.858252,91.4141418 505.858252,126.10117 C505.858252,151.219363 500.199525,175.932997 488.881908,200.242764 L487.647653,202.845836 C473.772841,232.32981 455.996006,250.540227 434.316614,257.477632 C491.116622,264.415038 519.516201,289.345966 519.516201,332.271163 C519.516201,345.040325 516.77705,356.439731 511.298672,366.469685 L510.410901,368.041982 C481.360515,420.072524 431.49866,446.087405 360.82384,446.087405 C338.710859,446.087405 310.744862,441.751592 276.92501,433.079835 C276.92501,433.947011 276.708219,434.814173 276.274631,435.681349 C276.274631,436.982112 277.141794,441.101135 278.876146,448.038541 C277.141794,453.241595 273.889934,456.493455 269.120468,457.794219 L263.917439,455.192705 C255.67927,456.05988 250.909875,451.724067 249.609112,442.185134 L249.077053,436.80267 C247.981486,426.33678 246.966486,420.543234 246.03203,419.421886 C245.110656,418.316237 242.671739,387.770142 243.105327,385.602202 L243.112703,373.174925 C243.152045,367.52273 243.348756,359.772334 243.702837,349.92362 L244.473945,329.742184 C244.862291,318.716202 245.056462,310.020366 245.056462,303.654508 L244.406084,280.891259 C235.300739,277.856144 230.748135,273.737122 230.748135,268.534067 C230.748135,262.03025 234.867157,256.610483 243.105327,252.274604 L243.105327,35.0481762 C243.105327,31.5794734 245.598419,27.2436599 250.58468,22.0406056 C255.57094,16.8375514 259.798358,14.2360633 263.267061,14.2360633 C270.204467,14.2360633 274.106699,14.8864353 274.973874,16.1871989 C277.575401,18.788726 279.960099,21.6070048 282.128038,24.6421198 L280.322021,35.2417202 C274.588635,69.6420143 271.721982,94.7252543 271.721982,110.492085 L272.37236,114.394357 C301.856334,38.5164823 345.864841,0.578114246 404.399201,0.578114246 Z M325.461531,277.646951 L317.389562,277.646951 C300.326465,277.760304 286.621614,279.058362 276.274631,281.541638 C275.931034,292.880369 275.72358,313.884944 275.652268,344.555804 L275.652268,344.555804 L275.63726,373.992958 C275.715305,383.943775 276.144552,393.016477 276.92501,401.211287 C297.737227,413.351747 325.269643,419.421886 359.523083,419.421886 C387.272705,419.421886 414.37154,411.18384 440.820399,394.707502 L440.820399,394.707502 L442.490961,393.691782 C471.728394,375.676487 486.346896,353.902399 486.346896,328.368892 C486.346896,304.52156 463.367084,289.129422 417.406772,282.192017 L417.406772,282.192017 L416.24795,282.008089 C398.213531,279.216947 367.95166,277.763247 325.461531,277.646951 L325.461531,277.646951 Z" id="B"></path>
                    <path d="M242.547859,123.499656 C242.547859,58.461478 218.917676,25.9428768 171.6566,25.9428768 C139.571099,25.9428768 110.304358,46.9715722 83.8554986,89.0295939 C60.0081667,126.751737 48.0846796,162.522198 48.0846796,196.342051 L48.0846796,253.575361 L96.2126906,253.575361 C146.075294,253.575361 182.279336,244.686944 204.825905,226.909842 C229.974,206.531213 242.547859,172.061495 242.547859,123.499656 Z M174.258114,0.578114246 C208.077966,0.578114246 233.876057,13.5855547 251.653159,39.6008259 C267.695909,62.5809821 275.717164,91.4141418 275.717164,126.10117 C275.717164,151.219363 270.058438,175.932997 258.740821,200.242764 L257.506565,202.845836 C243.631754,232.32981 225.854919,250.540227 204.175526,257.477632 C260.975535,264.415038 289.375113,289.345966 289.375113,332.271163 C289.375113,345.040325 286.635963,356.439731 281.157585,366.469685 L280.269814,368.041982 C251.219428,420.072524 201.357573,446.087405 130.682753,446.087405 C108.569772,446.087405 80.6037751,441.751592 46.7839226,433.079835 C46.7839226,433.947011 16.8253991,420.543234 15.8909425,419.421886 C14.9695683,418.316237 12.5306513,387.770142 12.9642391,385.602202 L12.9716158,373.174925 C13.0109578,367.52273 13.2076681,359.772334 13.5617501,349.92362 L14.3328573,329.742184 C14.7212037,318.716202 14.9153747,310.020366 14.9153747,303.654508 L14.2649962,280.891259 C5.15965129,277.856144 0.607047126,273.737122 0.607047126,268.534067 C0.607047126,262.03025 4.72606994,256.610483 12.9642391,252.274604 L42.2312729,114.394357 C71.7152469,38.5164823 115.723754,0.578114246 174.258114,0.578114246 Z M95.3204436,277.646951 L87.2484748,277.646951 C70.1853775,277.760304 56.4805269,279.058362 46.133544,281.541638 C45.7899461,292.880369 45.5824928,313.884944 45.5111809,344.555804 L45.5111809,344.555804 L45.496173,373.992958 C45.5742177,383.943775 46.0034644,393.016477 46.7839226,401.211287 C67.5961395,413.351747 95.1285551,419.421886 129.381996,419.421886 C157.131618,419.421886 184.230452,411.18384 210.679311,394.707502 L210.679311,394.707502 L212.349873,393.691782 C241.587307,375.676487 256.205808,353.902399 256.205808,328.368892 C256.205808,304.52156 233.225997,289.129422 187.265684,282.192017 L187.265684,282.192017 L186.106862,282.008089 C168.072443,279.216947 137.810573,277.763247 95.3204436,277.646951 L95.3204436,277.646951 Z" id="B" transform="translate(144.991080, 223.332760) scale(-1, 1) translate(-144.991080, -223.332760) "></path>
                </g>
            </g>
        </g>
    </g>
</svg>